<svg width="221" height="337" viewBox="0 0 221 337" fill="none" xmlns="http://www.w3.org/2000/svg">
<g id="bg-icones">
<path fill-rule="evenodd" clip-rule="evenodd" d="M27.6118 210.22C24.6055 210.188 21.5953 210.398 18.6403 210.889C15.0707 211.481 11.2537 212.396 8.11611 214.593C5.61145 216.347 3.80516 218.908 2.4669 221.485C1.08398 224.147 0.165944 227.153 0.0336564 230.197C-0.155072 234.505 0.422381 239.115 2.4669 243.066C5.6638 249.243 10.651 255.193 17.1344 258.182C21.9813 260.417 27.7665 260.382 32.8144 259.203C38.8392 257.795 44.7681 254.585 48.9027 249.923C52.4904 245.878 54.3629 240.465 55.1517 235.281C55.7896 231.088 55.5669 226.508 53.85 222.505C52.46 219.264 49.9333 216.514 47.0608 214.58C43.8953 212.45 40.0959 211.617 36.5578 211.025C33.6182 210.532 30.6181 210.253 27.6118 210.22ZM27.5863 212.388C30.4735 212.42 33.3635 212.688 36.1962 213.162C39.6482 213.741 43.1339 214.554 45.8399 216.375C48.4054 218.103 50.659 220.587 51.8464 223.356C53.3516 226.865 53.5901 231.075 52.9992 234.959C52.2539 239.858 50.463 244.892 47.2692 248.493C43.4932 252.75 37.9298 255.783 32.3167 257.095C27.6267 258.19 22.2778 258.168 18.049 256.218C12.1871 253.515 7.4355 247.935 4.40243 242.075C2.60015 238.593 2.03448 234.334 2.21166 230.29C2.32766 227.621 3.14691 224.897 4.40243 222.48C5.64119 220.094 7.28573 217.827 9.37101 216.367C12.0547 214.488 15.5462 213.599 18.9976 213.027C21.8165 212.56 24.6991 212.356 27.5863 212.388Z" fill="#EFF4F9"/>
<path fill-rule="evenodd" clip-rule="evenodd" d="M3.6325 221.023C3.41626 221.036 3.20866 221.112 3.03624 221.243C2.86382 221.373 2.73441 221.552 2.66454 221.756C2.59467 221.96 2.58752 222.18 2.64401 222.388C2.7005 222.596 2.81805 222.783 2.98165 222.924C2.98165 222.924 4.00148 223.83 5.32981 224.854C6.65814 225.878 8.25513 227.03 9.7071 227.597C15.8585 230 22.6284 230.301 29.0369 230.243C42.5945 230.122 53.0801 224.452 53.0801 224.452C53.2095 224.386 53.3244 224.295 53.418 224.185C53.5116 224.074 53.582 223.946 53.6251 223.808C53.6682 223.67 53.6831 223.525 53.6689 223.381C53.6547 223.237 53.6117 223.097 53.5424 222.97C53.4731 222.843 53.379 222.731 53.2656 222.641C53.1521 222.55 53.0217 222.483 52.8819 222.444C52.742 222.405 52.5957 222.393 52.4515 222.411C52.3073 222.429 52.1681 222.475 52.0421 222.547C52.0421 222.547 41.9736 227.959 29.0156 228.076C22.6933 228.132 16.2026 227.804 10.5026 225.578C9.5289 225.198 7.92975 224.114 6.66555 223.14C5.40134 222.166 4.43224 221.307 4.43224 221.307C4.3248 221.209 4.19865 221.133 4.06127 221.084C3.92389 221.036 3.77809 221.015 3.6325 221.023Z" fill="#EFF4F9"/>
<path fill-rule="evenodd" clip-rule="evenodd" d="M53.7691 228.745C53.4868 228.756 53.2199 228.876 53.0247 229.079C53.0247 229.079 52.5337 229.575 51.8932 230.158C51.2527 230.742 50.4326 231.417 49.9832 231.674C47.3325 233.189 44.2865 234.14 41.2073 234.735C38.5764 235.243 32.4613 235.12 32.4613 235.12C32.3182 235.116 32.1758 235.14 32.0421 235.191C31.9084 235.242 31.7861 235.318 31.6822 235.416C31.5782 235.514 31.4947 235.631 31.4363 235.761C31.3779 235.891 31.3459 236.032 31.342 236.174C31.3381 236.316 31.3624 236.458 31.4135 236.591C31.4647 236.724 31.5416 236.846 31.6401 236.949C31.7385 237.052 31.8564 237.136 31.9871 237.194C32.1178 237.252 32.2587 237.283 32.4017 237.287C32.4017 237.287 38.3693 237.493 41.6242 236.864C44.8652 236.238 48.1359 235.23 51.0679 233.554C51.8616 233.1 52.678 232.389 53.365 231.763C54.052 231.137 54.5774 230.603 54.5774 230.603C54.7336 230.449 54.8396 230.252 54.8813 230.038C54.923 229.823 54.8985 229.601 54.8111 229.4C54.7237 229.2 54.5774 229.03 54.3915 228.914C54.2055 228.798 53.9886 228.74 53.7692 228.749L53.7691 228.745Z" fill="#EFF4F9"/>
<path fill-rule="evenodd" clip-rule="evenodd" d="M52.8844 238.117C52.7132 238.122 52.5456 238.167 52.3952 238.249C52.3952 238.249 46.7102 241.155 43.9724 241.936C42.1375 242.46 37.6554 242.846 37.6554 242.846C37.3671 242.869 37.0996 243.004 36.9117 243.223C36.7238 243.442 36.631 243.726 36.6535 244.013C36.6761 244.3 36.8122 244.566 37.032 244.753C37.2518 244.94 37.5373 245.032 37.8255 245.01C37.8255 245.01 42.1758 244.703 44.5723 244.019C47.8715 243.077 53.4034 240.171 53.4034 240.171C53.6255 240.061 53.8032 239.879 53.9069 239.654C54.0105 239.43 54.0341 239.176 53.9735 238.937C53.9129 238.697 53.7719 238.485 53.5739 238.337C53.3758 238.188 53.1325 238.109 52.8844 238.117Z" fill="#EFF4F9"/>
<path fill-rule="evenodd" clip-rule="evenodd" d="M28.1988 214.868C26.1972 214.89 23.6362 214.931 21.1969 215.114C18.7561 215.296 16.4678 215.589 14.816 216.231C11.6689 217.455 10.1452 219.766 10.1452 219.766C10.0666 219.886 10.0128 220.021 9.98698 220.162C9.96112 220.303 9.9637 220.448 9.99457 220.588C10.0254 220.729 10.084 220.861 10.1668 220.979C10.2496 221.096 10.3551 221.196 10.477 221.273C10.477 221.273 15.3798 224.4 19.8867 225.345C24.3069 226.273 31.5879 226.31 36.0473 225.412C40.5969 224.497 45.6612 221.344 45.6612 221.344C45.8079 221.254 45.9309 221.131 46.0203 220.984C46.1097 220.837 46.1627 220.671 46.1752 220.5C46.1877 220.329 46.1591 220.158 46.092 220C46.0248 219.842 45.9209 219.702 45.7888 219.592C45.7888 219.592 42.5774 216.82 39.3654 215.799C36.2441 214.806 32.1968 214.832 28.2031 214.867L28.1988 214.868ZM28.2202 217.035C32.1987 217.001 36.1379 217.057 38.7019 217.865C40.5288 218.446 41.8584 219.585 42.9005 220.367C41.2469 221.275 38.4458 222.719 35.6178 223.288C31.6522 224.086 24.2666 224.049 20.3377 223.225C17.3948 222.608 14.4943 221.038 12.9997 220.186C13.4682 219.63 13.7979 218.955 15.6073 218.251C16.7907 217.791 19.0049 217.454 21.3586 217.278C23.7123 217.102 26.2355 217.053 28.2202 217.035Z" fill="#EFF4F9"/>
<path fill-rule="evenodd" clip-rule="evenodd" d="M17.815 205.61L15.7349 206.25L21.3841 224.537L23.4642 223.898L17.815 205.61Z" fill="#EFF4F9"/>
<path fill-rule="evenodd" clip-rule="evenodd" d="M46.9118 200.437C46.7773 200.441 46.6446 200.47 46.5205 200.522L37.2639 204.247C37.0923 204.316 36.9412 204.428 36.8251 204.572C36.709 204.715 36.6316 204.886 36.6003 205.068L33.261 224.236C33.2367 224.376 33.2404 224.52 33.272 224.659C33.3035 224.798 33.3622 224.929 33.4448 225.046C33.6115 225.281 33.8652 225.44 34.1501 225.489C34.2912 225.513 34.4356 225.51 34.5752 225.478C34.7148 225.447 34.8469 225.388 34.9638 225.306C35.1999 225.14 35.3602 224.888 35.4092 224.604L38.6422 206.029L47.3372 202.532C47.5778 202.441 47.778 202.267 47.9022 202.043C48.0264 201.818 48.0666 201.557 48.0156 201.305C47.9645 201.054 47.8257 200.829 47.6236 200.67C47.4215 200.511 47.1693 200.429 46.9118 200.437Z" fill="#EFF4F9"/>
<path fill-rule="evenodd" clip-rule="evenodd" d="M15.4456 198.816C15.2919 198.822 15.1412 198.86 15.0033 198.928C14.8655 198.995 14.7436 199.091 14.6458 199.21L7.63536 207.608C7.48897 207.785 7.40242 208.002 7.38811 208.231C7.37381 208.459 7.43247 208.686 7.5557 208.879C7.67893 209.072 7.86041 209.222 8.07416 209.306C8.2879 209.39 8.52295 209.405 8.74563 209.348L26.1016 204.878C26.3251 204.82 26.5244 204.693 26.6707 204.516C26.817 204.338 26.9028 204.118 26.9155 203.889C26.9283 203.659 26.8675 203.432 26.7418 203.239C26.6162 203.046 26.4322 202.898 26.2165 202.816L15.8709 198.888C15.7354 198.836 15.5907 198.811 15.4456 198.816ZM15.8242 201.186L22.2518 203.629L11.4681 206.406L15.8242 201.186Z" fill="#EFF4F9"/>
<path fill-rule="evenodd" clip-rule="evenodd" d="M14.6162 196.001C14.4454 196.008 14.2786 196.054 14.1293 196.137C13.9799 196.22 13.8523 196.336 13.7566 196.477C13.661 196.618 13.6 196.779 13.5786 196.948C13.5572 197.117 13.576 197.288 13.6335 197.449L14.5183 200.048C14.5623 200.185 14.6332 200.312 14.727 200.421C14.8208 200.531 14.9356 200.621 15.0647 200.685C15.1937 200.75 15.3345 200.789 15.4787 200.799C15.6229 200.809 15.7678 200.791 15.9048 200.745C16.0417 200.699 16.1681 200.626 16.2765 200.531C16.385 200.436 16.4732 200.32 16.5362 200.19C16.5992 200.061 16.6357 199.92 16.6434 199.776C16.6512 199.633 16.6301 199.489 16.5815 199.353L15.6967 196.754C15.6242 196.528 15.4793 196.332 15.2841 196.196C15.0889 196.06 14.8543 195.992 14.6162 196.001Z" fill="#EFF4F9"/>
<path fill-rule="evenodd" clip-rule="evenodd" d="M7.64812 229.773C7.54491 229.781 7.44604 229.818 7.36311 229.88L1.00775 234.38C0.949374 234.421 0.899766 234.473 0.86176 234.534C0.823753 234.594 0.798093 234.662 0.786242 234.732C0.774392 234.802 0.776585 234.874 0.792695 234.944C0.808806 235.014 0.838518 235.079 0.880137 235.137C0.921755 235.196 0.974464 235.245 1.03525 235.283C1.09604 235.32 1.16372 235.346 1.23443 235.358C1.30514 235.37 1.37749 235.367 1.44735 235.351C1.51721 235.335 1.58321 235.306 1.64159 235.264L7.99269 230.76C8.09056 230.693 8.16354 230.595 8.20046 230.483C8.23738 230.37 8.23621 230.249 8.19713 230.137C8.15804 230.025 8.0832 229.929 7.98405 229.863C7.8849 229.798 7.76691 229.766 7.64812 229.773Z" fill="#EFF4F9"/>
<path fill-rule="evenodd" clip-rule="evenodd" d="M9.74113 232.169C9.63804 232.182 9.54062 232.223 9.46037 232.289L2.24147 237.94C2.18082 237.983 2.12947 238.037 2.09056 238.099C2.05165 238.162 2.026 238.232 2.01517 238.305C2.00434 238.378 2.00856 238.452 2.02758 238.523C2.0466 238.594 2.08001 238.661 2.12578 238.719C2.17155 238.777 2.2287 238.825 2.29376 238.86C2.35881 238.895 2.43039 238.917 2.50413 238.924C2.57787 238.93 2.65221 238.922 2.72261 238.899C2.79301 238.877 2.858 238.84 2.91359 238.791L10.1325 233.14C10.2272 233.068 10.2956 232.967 10.3272 232.853C10.3587 232.738 10.3518 232.617 10.3074 232.507C10.263 232.397 10.1835 232.304 10.0813 232.243C9.97898 232.183 9.8595 232.156 9.74113 232.169Z" fill="#EFF4F9"/>
<path fill-rule="evenodd" clip-rule="evenodd" d="M12.6593 234.18C12.5367 234.186 12.4197 234.234 12.3275 234.314L3.5687 241.786C3.51291 241.832 3.46687 241.889 3.4333 241.952C3.39972 242.016 3.37928 242.086 3.37317 242.158C3.36706 242.23 3.37541 242.302 3.39771 242.37C3.42002 242.439 3.45584 242.503 3.50309 242.557C3.55033 242.612 3.60804 242.657 3.67285 242.689C3.73766 242.721 3.80826 242.74 3.88052 242.744C3.95278 242.749 4.02525 242.739 4.09369 242.716C4.16213 242.692 4.22517 242.655 4.27911 242.607L13.0379 235.137C13.1256 235.064 13.1879 234.965 13.2161 234.855C13.2443 234.745 13.237 234.628 13.1951 234.523C13.1532 234.417 13.0789 234.327 12.9828 234.265C12.8866 234.204 12.7735 234.174 12.6593 234.18Z" fill="#EFF4F9"/>
<path fill-rule="evenodd" clip-rule="evenodd" d="M14.8713 237.148C14.7481 237.155 14.6311 237.204 14.5395 237.286L5.49142 245.139C5.43488 245.185 5.38818 245.241 5.3541 245.306C5.32002 245.37 5.29926 245.44 5.29305 245.513C5.28685 245.585 5.29532 245.658 5.31796 245.727C5.34061 245.796 5.37696 245.86 5.42487 245.914C5.47278 245.969 5.53127 246.014 5.59685 246.046C5.66244 246.078 5.73379 246.096 5.80666 246.1C5.87953 246.104 5.95244 246.093 6.02106 246.068C6.08967 246.044 6.15259 246.005 6.20608 245.956L15.2542 238.103C15.3422 238.03 15.4048 237.931 15.4329 237.82C15.461 237.71 15.4533 237.593 15.4109 237.487C15.3684 237.381 15.2934 237.291 15.1965 237.23C15.0996 237.169 14.9858 237.141 14.8713 237.148Z" fill="#EFF4F9"/>
<path fill-rule="evenodd" clip-rule="evenodd" d="M17.2918 239.831C17.1685 239.835 17.05 239.88 16.9558 239.959L7.04413 248.1C6.93245 248.191 6.86186 248.323 6.8479 248.467C6.83395 248.61 6.87776 248.753 6.96971 248.864C7.06166 248.975 7.19421 249.045 7.3382 249.059C7.48219 249.073 7.62583 249.029 7.73752 248.938L17.6492 240.797C17.7386 240.726 17.8032 240.629 17.834 240.52C17.8647 240.41 17.86 240.293 17.8204 240.186C17.7809 240.08 17.7085 239.988 17.6136 239.924C17.5188 239.861 17.4062 239.828 17.2918 239.831Z" fill="#EFF4F9"/>
<path fill-rule="evenodd" clip-rule="evenodd" d="M19.5889 243.184C19.4847 243.19 19.3843 243.225 19.2996 243.286L9.09448 250.47C9.03609 250.511 8.98642 250.563 8.9483 250.623C8.91017 250.683 8.88435 250.751 8.87229 250.821C8.86024 250.891 8.8622 250.963 8.87805 251.032C8.8939 251.102 8.92333 251.167 8.96468 251.225C9.00602 251.283 9.05846 251.333 9.119 251.371C9.17954 251.409 9.24699 251.434 9.31751 251.446C9.38802 251.458 9.46022 251.457 9.52998 251.441C9.59974 251.425 9.66569 251.396 9.72406 251.355L19.9292 244.171C20.0267 244.104 20.0994 244.006 20.1363 243.894C20.1733 243.782 20.1724 243.661 20.1339 243.55C20.0954 243.438 20.0214 243.342 19.923 243.276C19.8246 243.21 19.7073 243.178 19.5889 243.184Z" fill="#EFF4F9"/>
<path fill-rule="evenodd" clip-rule="evenodd" d="M22.5113 245.098C22.3881 245.096 22.2681 245.137 22.171 245.212L12.6422 252.396C12.5272 252.483 12.4516 252.612 12.432 252.755C12.4125 252.897 12.4506 253.041 12.5381 253.156C12.6255 253.27 12.7551 253.346 12.8983 253.365C13.0415 253.385 13.1865 253.347 13.3016 253.26L22.8304 246.076C22.9223 246.009 22.9906 245.914 23.0256 245.806C23.0605 245.698 23.0603 245.581 23.025 245.473C22.9897 245.365 22.9211 245.27 22.8289 245.203C22.7367 245.136 22.6256 245.098 22.5113 245.098Z" fill="#EFF4F9"/>
<path fill-rule="evenodd" clip-rule="evenodd" d="M25.4083 247.108C25.2851 247.107 25.1651 247.148 25.068 247.223L14.765 254.788C14.7062 254.83 14.6562 254.883 14.6182 254.944C14.5801 255.005 14.5546 255.073 14.5432 255.144C14.5319 255.215 14.5348 255.287 14.5519 255.357C14.569 255.427 14.5999 255.493 14.6428 255.551C14.6858 255.609 14.7398 255.658 14.8019 255.694C14.8639 255.731 14.9328 255.756 15.0043 255.766C15.0759 255.776 15.1487 255.772 15.2187 255.753C15.2886 255.735 15.3542 255.703 15.4116 255.66L25.7146 248.091C25.8076 248.025 25.8772 247.931 25.9136 247.823C25.95 247.715 25.9514 247.599 25.9175 247.49C25.8836 247.381 25.8162 247.286 25.7248 247.217C25.6334 247.149 25.5227 247.111 25.4083 247.108Z" fill="#EFF4F9"/>
<path fill-rule="evenodd" clip-rule="evenodd" d="M28.3052 249.407C28.1629 249.401 28.0239 249.451 27.9181 249.546L19.5464 256.827C19.4898 256.873 19.4431 256.929 19.4091 256.994C19.375 257.058 19.3542 257.128 19.348 257.201C19.3418 257.273 19.3503 257.346 19.3729 257.415C19.3956 257.484 19.4319 257.548 19.4798 257.602C19.5277 257.657 19.5862 257.702 19.6518 257.734C19.7174 257.766 19.7887 257.784 19.8616 257.788C19.9345 257.792 20.0074 257.781 20.076 257.756C20.1446 257.732 20.2076 257.693 20.261 257.644L28.637 250.363C28.7214 250.292 28.7823 250.198 28.8117 250.092C28.8412 249.987 28.8376 249.875 28.8017 249.771C28.7657 249.667 28.699 249.577 28.6104 249.512C28.5218 249.447 28.4153 249.411 28.3052 249.407Z" fill="#EFF4F9"/>
<path fill-rule="evenodd" clip-rule="evenodd" d="M31.8147 251.993C31.6734 252.001 31.5407 252.063 31.4447 252.167L25.285 258.585C25.2355 258.636 25.1968 258.697 25.1709 258.763C25.145 258.829 25.1324 258.9 25.134 258.971C25.1356 259.042 25.1513 259.112 25.1801 259.178C25.2089 259.243 25.2503 259.302 25.302 259.351C25.3537 259.4 25.4146 259.439 25.4812 259.464C25.5479 259.49 25.619 259.502 25.6905 259.501C25.762 259.499 25.8325 259.484 25.8979 259.455C25.9634 259.426 26.0225 259.385 26.072 259.334L32.2316 252.916C32.3092 252.838 32.3613 252.739 32.381 252.631C32.4007 252.523 32.387 252.412 32.3419 252.312C32.2967 252.212 32.2222 252.128 32.1281 252.071C32.034 252.014 31.9247 251.987 31.8147 251.993Z" fill="#EFF4F9"/>
<path fill-rule="evenodd" clip-rule="evenodd" d="M51.9214 61.6948C51.7955 61.6162 51.6548 61.5642 51.5081 61.5417C51.3614 61.5192 51.2119 61.5268 51.0685 61.5641C51.0685 61.5641 45.435 63.0101 42.5617 64.0386C40.8494 64.6512 38.878 65.17 37.1371 66.3813C35.8083 67.3058 34.5085 68.493 33.684 70.0481C32.9084 71.5118 32.7658 73.1076 32.6785 74.5121C32.5443 76.673 33.1889 80.2472 33.1889 80.2472C33.2125 80.3879 33.2636 80.5226 33.3394 80.6438C33.4151 80.7651 33.5138 80.8705 33.6302 80.9538C33.7465 81.0371 33.8781 81.0967 34.0174 81.1294C34.1566 81.1621 34.3009 81.167 34.4419 81.1441C34.5828 81.1212 34.7178 81.0708 34.839 80.9958C34.9602 80.9207 35.0652 80.8226 35.1482 80.7069C35.2312 80.5912 35.2906 80.4601 35.3227 80.3213C35.3549 80.1825 35.3593 80.0387 35.3357 79.898C35.3357 79.898 34.7567 76.159 34.85 74.6562C34.9332 73.3165 35.0941 72.0324 35.6046 71.069C36.1949 69.9557 37.2342 68.9659 38.3871 68.1638C39.7207 67.2359 41.4855 66.7306 43.3037 66.08C45.5662 65.2703 49.2658 64.3146 50.4742 63.9974C50.7174 65.1792 51.3976 68.3654 51.5348 70.3874C51.6681 72.3562 51.8118 74.2634 51.3958 75.9285C50.9978 77.5222 50.252 79.0799 49.2243 80.3107C48.5748 81.0875 47.6526 81.7315 46.6581 82.2117C46.232 82.4174 45.2625 82.6946 44.4626 82.8749C43.6628 83.0551 43.0143 83.163 43.0143 83.163C42.8733 83.1865 42.7384 83.2377 42.6174 83.3133C42.4963 83.3889 42.3915 83.4877 42.3089 83.6038C42.2263 83.72 42.1676 83.8513 42.136 83.9904C42.1044 84.1294 42.1007 84.2733 42.1249 84.4141C42.1491 84.5549 42.2007 84.6898 42.277 84.8108C42.3534 84.9318 42.4528 85.0368 42.5696 85.1196C42.6864 85.2025 42.8184 85.2616 42.9579 85.2937C43.0975 85.3259 43.2419 85.3302 43.3829 85.3066C43.3829 85.3066 44.0876 85.1844 44.9509 84.9899C45.8144 84.7952 46.8169 84.5499 47.6126 84.1657C48.8113 83.5871 49.9879 82.7965 50.8985 81.7075C52.1675 80.1877 53.0321 78.3491 53.5025 76.4654C54.0357 74.3313 53.8347 72.1983 53.7031 70.256C53.5129 67.4518 52.4062 62.3951 52.4062 62.3951C52.3759 62.2525 52.3171 62.1175 52.2335 61.9978C52.1498 61.8781 52.0429 61.7765 51.9192 61.6987L51.9214 61.6948Z" fill="#EFF4F9"/>
<path fill-rule="evenodd" clip-rule="evenodd" d="M59.0219 55.3093C56.8617 53.4472 53.8938 53.3843 51.5368 53.3341C49.3364 53.2873 46.9914 53.6371 44.9476 54.7161C42.6594 55.9242 40.8926 57.8911 39.5342 59.9151C38.7292 61.1156 38.071 62.8357 37.554 64.3148C37.037 65.794 36.6928 67.0145 36.6928 67.0145L38.7847 67.6112C38.7847 67.6112 39.1149 66.4475 39.6081 65.0364C40.1014 63.6252 40.7931 61.9493 41.3448 61.1266C42.5774 59.29 44.1422 57.6018 45.9708 56.6364C47.5713 55.7915 49.5729 55.463 51.5022 55.504C53.8105 55.553 56.2259 55.7618 57.6036 56.9492C58.8457 58.02 59.5093 60.1058 59.6448 62.0235C59.786 64.0205 59.1242 66.2126 58.0692 68.0451C57.365 69.2683 55.7434 70.179 54.33 71.6885C53.4622 72.6155 51.9553 74.4234 51.9553 74.4234L53.6316 75.8164C53.6316 75.8164 55.1707 73.9771 55.9249 73.1714L55.9212 73.1692C56.9966 72.0207 58.8432 71.0657 59.9553 69.1341C61.1805 67.0059 61.9974 64.4474 61.8158 61.8789C61.6556 59.6113 60.9679 56.9867 59.0219 55.3093Z" fill="#EFF4F9"/>
<path fill-rule="evenodd" clip-rule="evenodd" d="M33.1032 74.5421C33.1032 74.5421 28.4727 80.0225 26.6187 83.434C25.5922 85.321 23.9921 87.5321 24.1042 90.248L24.1005 90.2458C24.2063 92.8166 25.3998 95.4539 27.4065 97.1453C29.3022 98.7428 31.8945 99.264 34.2034 99.1045C36.8328 98.923 39.349 97.7004 41.2593 96.0122C43.2599 94.2441 43.9885 91.7433 44.9801 89.8654C46.0513 87.8397 47.7729 83.8625 47.7729 83.8625L45.775 82.9925C45.775 82.9925 44.0246 87.0198 43.0572 88.8484C41.9312 90.9793 41.2093 93.1496 39.8117 94.3846C38.2271 95.7852 36.0866 96.7974 34.0492 96.9383C32.2031 97.0658 30.1018 96.5815 28.8084 95.4914C27.3586 94.2697 26.3568 92.0993 26.2772 90.1681C26.205 88.4193 27.4267 86.5081 28.5323 84.4755C30.1129 81.567 34.7773 75.9391 34.7773 75.9391L33.1032 74.5421Z" fill="#EFF4F9"/>
<path fill-rule="evenodd" clip-rule="evenodd" d="M53.0115 59.5429C52.762 59.3976 52.4652 59.3567 52.1864 59.4295C51.9076 59.5023 51.6697 59.6828 51.525 59.9312L50.2399 62.0634C50.1663 62.1852 50.1176 62.3203 50.0964 62.4611C50.0752 62.602 50.082 62.7458 50.1165 62.8842C50.1511 63.0227 50.2124 63.1532 50.2974 63.2682C50.3823 63.3831 50.4891 63.4803 50.6115 63.5543C50.7339 63.6283 50.8697 63.6774 51.011 63.6991C51.1523 63.7208 51.2963 63.7147 51.435 63.6809C51.5736 63.647 51.7041 63.5863 51.8189 63.502C51.9338 63.4178 52.0308 63.3118 52.1045 63.19L53.3916 61.0541C53.468 60.9309 53.5189 60.7935 53.541 60.6503C53.5632 60.507 53.5563 60.3609 53.5208 60.22C53.4853 60.0792 53.422 59.9467 53.3345 59.8305C53.2469 59.7143 53.1374 59.6162 53.0115 59.5429Z" fill="#EFF4F9"/>
<path fill-rule="evenodd" clip-rule="evenodd" d="M75.3886 75.2435C75.258 75.1718 75.1142 75.1276 74.966 75.1135C74.8178 75.0994 74.6684 75.1158 74.5271 75.1616C74.5271 75.1616 69.5945 76.7315 67.0709 77.9689C65.3231 78.8261 63.3753 79.7186 61.7937 81.2473C60.3976 82.5966 59.2376 84.2647 58.556 86.1236C58.0682 87.4567 57.9719 88.8707 58.0701 90.1981C58.1353 91.0793 58.424 92.0703 58.6871 92.9155C58.9503 93.7605 59.1968 94.4318 59.1968 94.4318C59.2469 94.5657 59.3229 94.6886 59.4204 94.7934C59.518 94.8982 59.6353 94.9827 59.7655 95.0424C59.8957 95.1022 60.0363 95.1358 60.1793 95.1414C60.3222 95.147 60.4648 95.1245 60.5988 95.075C60.7328 95.0256 60.8557 94.9502 60.9603 94.8533C61.0649 94.7564 61.1492 94.6399 61.2086 94.5103C61.2679 94.3807 61.301 94.2405 61.306 94.0979C61.311 93.9553 61.2876 93.8131 61.2375 93.6792C61.2375 93.6792 61.0067 93.0636 60.7628 92.2809C60.5191 91.498 60.2744 90.5198 60.2395 90.048C60.1581 88.9466 60.2548 87.8257 60.6028 86.8748C61.1549 85.3694 62.1308 83.9449 63.312 82.8034C64.5461 81.6105 66.2695 80.7814 68.0413 79.9125C69.8609 79.0202 72.9604 78.0162 74.1055 77.636C74.4349 78.841 75.4571 82.5228 75.8871 84.8871C76.2328 86.787 76.6776 88.568 76.5408 90.1868C76.4226 91.5864 76.0852 92.9811 75.4162 94.049C74.8372 94.9727 73.8054 95.7544 72.6868 96.4963C71.432 97.3285 67.9044 98.6966 67.9044 98.6966C67.7708 98.7465 67.6484 98.8222 67.5443 98.9195C67.4402 99.0167 67.3565 99.1334 67.2978 99.2632C67.239 99.3929 67.2065 99.5332 67.2021 99.6757C67.1977 99.8182 67.2215 99.9602 67.2722 100.094C67.3228 100.227 67.3994 100.349 67.4973 100.454C67.5952 100.558 67.7126 100.642 67.8429 100.701C67.9733 100.76 68.1138 100.793 68.2567 100.798C68.3995 100.803 68.5419 100.78 68.6755 100.73C68.6755 100.73 72.0932 99.5013 73.8975 98.3046C75.0701 97.5268 76.3807 96.6056 77.2605 95.202C78.195 93.7104 78.5733 91.9911 78.7095 90.3782C78.8881 88.2649 78.3517 86.2982 78.0261 84.509C77.4801 81.5064 75.9156 75.9046 75.9156 75.9046C75.8769 75.7646 75.8106 75.6336 75.7204 75.5194C75.6303 75.4052 75.5181 75.3102 75.3907 75.2398L75.3886 75.2435Z" fill="#EFF4F9"/>
<path fill-rule="evenodd" clip-rule="evenodd" d="M77.3535 65.8931C74.9278 65.0464 72.3109 65.7632 70.267 66.7582C67.9518 67.8852 66.1445 69.8718 64.9141 71.997C63.7973 73.926 63.8936 76.0027 63.4366 77.5083L63.4328 77.5061C63.1122 78.5621 62.2888 80.8147 62.2888 80.8147L64.3334 81.5699C64.3334 81.5699 65.1457 79.3609 65.5145 78.1458C66.1151 76.1671 66.093 74.3074 66.8002 73.0859C67.8597 71.256 69.4272 69.5869 71.2272 68.7106C72.9558 67.8691 75.094 67.4009 76.6424 67.9412C78.3595 68.5407 79.748 70.5281 80.9446 72.5026C81.9448 74.1529 82.661 76.0506 82.7297 77.8591C82.8079 79.9254 82.1282 82.1247 81.154 84.1105C80.7174 84.9996 79.6119 86.4365 78.6363 87.5694C77.6609 88.702 76.8182 89.5699 76.8182 89.5699L78.3809 91.0831C78.3809 91.0831 79.2658 90.1748 80.2883 88.9875C81.3108 87.8002 82.4714 86.3701 83.1085 85.0727C84.1821 82.8843 85.0021 80.3708 84.9042 77.785C84.8168 75.4756 83.9472 73.2698 82.8065 71.3877C81.5845 69.3715 80.0462 66.8328 77.3535 65.8931Z" fill="#EFF4F9"/>
<path fill-rule="evenodd" clip-rule="evenodd" d="M73.6568 97.9557L71.6101 97.2042C71.6101 97.2042 69.0683 104.058 67.3398 106.881C66.1324 108.855 65.0878 110.868 63.5373 111.68C61.825 112.577 59.4447 112.794 57.6617 112.15C56.071 111.574 54.6009 109.997 53.7882 108.334C52.8916 106.499 52.6978 104.14 53.1184 102.067C53.4892 100.239 55.0079 98.5288 56.2903 96.4882C57.3902 94.7362 60.0028 91.2066 60.0028 91.2066L58.2504 89.9113C58.2504 89.9113 55.6637 93.3954 54.4459 95.3353C53.3154 97.133 51.5139 99.0145 50.983 101.631C50.4761 104.129 50.6756 106.92 51.8331 109.288C52.8493 111.367 54.5968 113.352 56.9281 114.194C59.3963 115.087 62.2771 114.801 64.5563 113.608L64.5525 113.605C66.9606 112.345 68.0754 109.853 69.1964 108.021C71.2238 104.709 73.6546 97.9593 73.6546 97.9593L73.6568 97.9557Z" fill="#EFF4F9"/>
<path fill-rule="evenodd" clip-rule="evenodd" d="M76.6628 73.1979C76.4083 73.0625 76.1108 73.0329 75.8355 73.1159C75.5602 73.1989 75.3295 73.3875 75.1941 73.6404L73.9879 75.8231C73.8492 76.0749 73.8166 76.3719 73.8974 76.6486C73.9782 76.9252 74.1659 77.1588 74.4189 77.2982C74.6719 77.4377 74.9696 77.4715 75.2465 77.3921C75.5235 77.3126 75.7571 77.1264 75.8958 76.8745L77.0997 74.6957C77.1719 74.5697 77.218 74.4303 77.2351 74.286C77.2522 74.1417 77.24 73.9954 77.1992 73.8556C77.1585 73.7158 77.0901 73.5855 76.998 73.4724C76.906 73.3593 76.7917 73.2664 76.6628 73.1979Z" fill="#EFF4F9"/>
<path fill-rule="evenodd" clip-rule="evenodd" d="M33.7391 81.1318C33.6303 81.0756 33.5057 81.0575 33.3856 81.0805L28.4241 81.9746C28.2822 82.0003 28.1566 82.0812 28.075 82.1995C27.9933 82.3178 27.9622 82.4638 27.9886 82.6055C28.0149 82.7471 28.0965 82.8729 28.2154 82.9548C28.3344 83.0368 28.4809 83.0685 28.6227 83.0428L33.5846 82.1482C33.6965 82.1288 33.7994 82.0749 33.8788 81.994C33.9582 81.9131 34.0101 81.8092 34.0271 81.6971C34.0441 81.585 34.0254 81.4703 33.9737 81.369C33.922 81.2677 33.8402 81.1843 33.7391 81.1318Z" fill="#EFF4F9"/>
<path fill-rule="evenodd" clip-rule="evenodd" d="M33.5482 83.011C33.4234 82.944 33.2776 82.9279 33.1417 82.9663L26.5325 84.7914C26.4627 84.8094 26.3971 84.8412 26.3398 84.8848C26.2825 84.9284 26.2345 84.9831 26.1986 85.0455C26.1627 85.108 26.1397 85.1769 26.1309 85.2484C26.1221 85.3199 26.1277 85.3925 26.1473 85.462C26.1669 85.5314 26.2002 85.5963 26.2452 85.6529C26.2901 85.7095 26.346 85.7565 26.4094 85.7914C26.4727 85.8263 26.5423 85.8483 26.6142 85.8561C26.686 85.864 26.7587 85.8574 26.8278 85.8368L33.437 84.0118C33.5419 83.9834 33.6357 83.9242 33.7063 83.8419C33.7769 83.7597 33.821 83.6581 33.833 83.5503C33.845 83.4425 33.8242 83.3335 33.7735 83.2373C33.7228 83.1411 33.6442 83.0625 33.5482 83.011Z" fill="#EFF4F9"/>
<path fill-rule="evenodd" clip-rule="evenodd" d="M33.0436 85.3738C32.9166 85.3146 32.7719 85.3063 32.6394 85.3507L25.5242 87.6608C25.3871 87.7054 25.2736 87.8027 25.2087 87.9311C25.1438 88.0595 25.1327 88.2087 25.178 88.3457C25.2233 88.4827 25.3214 88.5961 25.4504 88.6614C25.5794 88.7268 25.7288 88.7385 25.866 88.694L32.9774 86.3817C33.0816 86.349 33.1734 86.2857 33.2407 86.2001C33.308 86.1145 33.3479 86.0104 33.3551 85.9016C33.3622 85.7929 33.3363 85.6843 33.2807 85.5902C33.2251 85.496 33.1425 85.4206 33.0436 85.3738Z" fill="#EFF4F9"/>
<path fill-rule="evenodd" clip-rule="evenodd" d="M32.5573 87.7474C32.4281 87.6894 32.2816 87.6838 32.1488 87.7318L25.3815 90.0179C25.3119 90.0392 25.2475 90.0741 25.1919 90.1208C25.1363 90.1675 25.0907 90.2249 25.0579 90.2896C25.025 90.3544 25.0055 90.4251 25.0006 90.4976C24.9957 90.5701 25.0053 90.643 25.0292 90.7118C25.053 90.7806 25.0904 90.8439 25.1391 90.8981C25.1879 90.9523 25.247 90.9962 25.313 91.0272C25.3791 91.0582 25.4506 91.0757 25.5234 91.0787C25.5962 91.0816 25.6688 91.0699 25.7369 91.0443L32.5006 88.7559C32.6045 88.7222 32.6956 88.6582 32.7621 88.572C32.8287 88.4857 32.8676 88.3814 32.8737 88.2725C32.8798 88.1637 32.8529 88.0552 32.7965 87.9616C32.74 87.8679 32.6567 87.7933 32.5573 87.7474Z" fill="#EFF4F9"/>
<path fill-rule="evenodd" clip-rule="evenodd" d="M32.5537 89.5149C32.4824 89.4796 32.4043 89.4602 32.3248 89.4582C32.2453 89.4562 32.1664 89.4718 32.0936 89.5035L25.9121 92.1278C25.8464 92.1556 25.7869 92.196 25.7369 92.2469C25.6869 92.2978 25.6476 92.3579 25.621 92.4241C25.5945 92.4902 25.5813 92.561 25.5822 92.6323C25.583 92.7037 25.5979 92.7744 25.6261 92.8401C25.6543 92.9058 25.6952 92.9652 25.7464 93.0152C25.7976 93.0653 25.8581 93.105 25.9245 93.1318C25.9909 93.1586 26.0619 93.172 26.1334 93.1715C26.2049 93.1709 26.2756 93.1562 26.3414 93.1284L32.5229 90.5041C32.6198 90.4646 32.703 90.398 32.7627 90.3123C32.8223 90.2265 32.8557 90.1253 32.859 90.0208C32.8622 89.9163 32.8352 89.8129 32.781 89.7232C32.7269 89.6334 32.6479 89.5611 32.5537 89.5149Z" fill="#EFF4F9"/>
<path fill-rule="evenodd" clip-rule="evenodd" d="M32.3667 91.9486C32.2952 91.9144 32.217 91.8963 32.1378 91.8953C32.0587 91.8943 31.9803 91.9106 31.9082 91.943L26.8682 94.1216C26.8021 94.1495 26.7423 94.1903 26.6922 94.2415C26.6422 94.2927 26.6029 94.3532 26.5765 94.4197C26.5501 94.4862 26.5372 94.5574 26.5385 94.629C26.5399 94.7007 26.5554 94.7715 26.5842 94.8372C26.6131 94.903 26.6547 94.9624 26.7067 95.0121C26.7586 95.0618 26.8199 95.1008 26.8869 95.1268C26.954 95.1529 27.0255 95.1653 27.0973 95.1637C27.1691 95.162 27.2398 95.1461 27.3053 95.117L32.3417 92.9362C32.4379 92.896 32.5203 92.8289 32.5791 92.743C32.6378 92.6571 32.6705 92.556 32.6732 92.4518C32.6758 92.3476 32.6483 92.2448 32.5939 92.1556C32.5396 92.0663 32.4607 91.9945 32.3667 91.9486Z" fill="#EFF4F9"/>
<path fill-rule="evenodd" clip-rule="evenodd" d="M32.1489 94.2571C32.0611 94.2136 31.9633 94.1944 31.8656 94.2017C31.768 94.2091 31.6743 94.2426 31.5944 94.2987L29.2181 95.9134C29.099 95.9944 29.0174 96.1192 28.991 96.2607C28.9646 96.4022 28.9957 96.5486 29.0774 96.6677C29.159 96.7868 29.2846 96.8689 29.4266 96.8959C29.5685 96.9228 29.7151 96.8926 29.8341 96.8116L32.2105 95.197C32.2904 95.1445 32.3548 95.072 32.3973 94.9865C32.4399 94.9011 32.4591 94.8057 32.4529 94.7103C32.4466 94.6149 32.4151 94.5229 32.3618 94.4433C32.3084 94.3637 32.235 94.2995 32.1489 94.2571Z" fill="#EFF4F9"/>
<path fill-rule="evenodd" clip-rule="evenodd" d="M49.8156 56.2898C49.6908 56.2228 49.5451 56.2067 49.4091 56.2451L41.9254 58.1811C41.8553 58.198 41.7894 58.2287 41.7314 58.2713C41.6734 58.314 41.6245 58.3679 41.5876 58.4297C41.5508 58.4915 41.5266 58.56 41.5167 58.6313C41.5067 58.7026 41.5111 58.7752 41.5295 58.8449C41.548 58.9146 41.5801 58.98 41.6241 59.0373C41.6681 59.0946 41.7231 59.1427 41.7858 59.1786C41.8485 59.2146 41.9177 59.2379 41.9893 59.247C42.061 59.256 42.1338 59.2505 42.2033 59.2312L49.6834 57.2931C49.7903 57.2679 49.8869 57.2111 49.9605 57.1299C50.0342 57.0486 50.0813 56.9469 50.0956 56.8382C50.11 56.7294 50.091 56.6187 50.041 56.5207C49.9911 56.4227 49.9123 56.3425 49.8156 56.2898Z" fill="#EFF4F9"/>
<path fill-rule="evenodd" clip-rule="evenodd" d="M48.4277 58.6171C48.3606 58.5754 48.2853 58.5486 48.207 58.5388C48.1287 58.5291 48.0493 58.5363 47.9742 58.5602L39.975 60.9807C39.9067 61.0013 39.8432 61.0351 39.788 61.0802C39.7329 61.1253 39.6873 61.1809 39.6537 61.2437C39.6202 61.3065 39.5994 61.3755 39.5925 61.4464C39.5857 61.5173 39.5929 61.589 39.6138 61.6573C39.6348 61.7255 39.669 61.7888 39.7145 61.844C39.76 61.8992 39.8159 61.945 39.879 61.9787C39.9421 62.0124 40.0112 62.0334 40.0823 62.0405C40.1534 62.0476 40.2252 62.0406 40.2935 62.02L48.2927 59.5996C48.394 59.5709 48.4845 59.5137 48.5535 59.4345C48.6224 59.3553 48.6668 59.2576 48.6811 59.1535C48.6954 59.0494 48.6791 58.9433 48.6341 58.8481C48.5891 58.7528 48.5174 58.6726 48.4277 58.6171Z" fill="#EFF4F9"/>
<path fill-rule="evenodd" clip-rule="evenodd" d="M46.889 61.2481C46.7657 61.1781 46.6201 61.1587 46.4831 61.194L39.8436 62.7568C39.7699 62.7686 39.6995 62.7956 39.6368 62.8357C39.574 62.8758 39.5203 62.9284 39.479 62.9902C39.4376 63.052 39.4096 63.1217 39.3964 63.1949C39.3833 63.2682 39.3854 63.3435 39.4026 63.416C39.4199 63.4885 39.452 63.5567 39.4968 63.6164C39.5416 63.6762 39.5982 63.7261 39.6631 63.7632C39.7281 63.8002 39.7997 63.8238 39.874 63.832C39.9482 63.8402 40.0233 63.8332 40.0945 63.8112L46.7343 62.2479C46.8417 62.2251 46.9396 62.1703 47.015 62.0907C47.0904 62.0112 47.1397 61.9108 47.1565 61.8024C47.1733 61.6941 47.1568 61.583 47.1091 61.4839C47.0614 61.3849 46.9845 61.3031 46.889 61.2481Z" fill="#EFF4F9"/>
<path fill-rule="evenodd" clip-rule="evenodd" d="M59.5566 96.0376C59.4478 95.9813 59.3232 95.9633 59.2031 95.9863L54.2416 96.8803C54.0997 96.906 53.9741 96.9869 53.8925 97.1052C53.8108 97.2236 53.7797 97.3696 53.8061 97.5112C53.8324 97.6528 53.914 97.7786 54.0329 97.8606C54.1519 97.9426 54.2984 97.9742 54.4403 97.9485L59.4021 97.054C59.5141 97.0346 59.617 96.9807 59.6963 96.8997C59.7757 96.8188 59.8276 96.715 59.8446 96.6028C59.8616 96.4907 59.8429 96.376 59.7912 96.2747C59.7395 96.1735 59.6577 96.09 59.5566 96.0376Z" fill="#EFF4F9"/>
<path fill-rule="evenodd" clip-rule="evenodd" d="M59.3657 97.9167C59.2409 97.8497 59.0951 97.8336 58.9592 97.8721L52.35 99.6971C52.2802 99.7152 52.2146 99.7469 52.1573 99.7906C52.1 99.8342 52.052 99.8889 52.0161 99.9513C51.9802 100.014 51.9572 100.083 51.9484 100.154C51.9396 100.226 51.9452 100.298 51.9648 100.368C51.9844 100.437 52.0177 100.502 52.0627 100.559C52.1076 100.615 52.1635 100.662 52.2269 100.697C52.2902 100.732 52.3598 100.754 52.4316 100.762C52.5035 100.77 52.5762 100.763 52.6453 100.743L59.2545 98.9175C59.3594 98.8891 59.4532 98.8299 59.5238 98.7477C59.5944 98.6654 59.6385 98.5639 59.6505 98.456C59.6625 98.3482 59.6417 98.2393 59.591 98.1431C59.5403 98.0468 59.4617 97.9682 59.3657 97.9167Z" fill="#EFF4F9"/>
<path fill-rule="evenodd" clip-rule="evenodd" d="M58.861 100.28C58.7341 100.22 58.5893 100.212 58.4569 100.256L51.3417 102.567C51.2738 102.589 51.2109 102.624 51.1568 102.67C51.1026 102.717 51.0582 102.773 51.0261 102.837C50.9611 102.965 50.9501 103.114 50.9954 103.251C51.0407 103.388 51.1386 103.502 51.2677 103.567C51.3967 103.633 51.5462 103.644 51.6834 103.6L58.7949 101.287C58.899 101.255 58.9908 101.191 59.0581 101.106C59.1255 101.02 59.1654 100.916 59.1725 100.807C59.1796 100.699 59.1537 100.59 59.0981 100.496C59.0426 100.402 58.96 100.326 58.861 100.28Z" fill="#EFF4F9"/>
<path fill-rule="evenodd" clip-rule="evenodd" d="M58.3748 102.653C58.2456 102.595 58.0991 102.59 57.9663 102.638L51.199 104.924C51.1294 104.945 51.065 104.98 51.0094 105.027C50.9538 105.073 50.9082 105.131 50.8754 105.195C50.8425 105.26 50.823 105.331 50.8181 105.403C50.8132 105.476 50.8228 105.549 50.8466 105.618C50.8705 105.686 50.9079 105.75 50.9566 105.804C51.0054 105.858 51.0645 105.902 51.1305 105.933C51.1965 105.964 51.2681 105.981 51.3409 105.984C51.4137 105.987 51.4863 105.976 51.5544 105.95L58.3181 103.662C58.422 103.628 58.5131 103.564 58.5796 103.478C58.6462 103.391 58.6851 103.287 58.6912 103.178C58.6973 103.069 58.6704 102.961 58.614 102.867C58.5575 102.774 58.4742 102.699 58.3748 102.653Z" fill="#EFF4F9"/>
<path fill-rule="evenodd" clip-rule="evenodd" d="M58.3712 104.421C58.2999 104.385 58.2217 104.366 58.1423 104.364C58.0628 104.362 57.9839 104.378 57.9111 104.409L51.7296 107.034C51.6639 107.061 51.6044 107.102 51.5544 107.153C51.5044 107.203 51.4651 107.264 51.4385 107.33C51.412 107.396 51.3988 107.467 51.3997 107.538C51.4005 107.609 51.4154 107.68 51.4436 107.746C51.4718 107.812 51.5127 107.871 51.5639 107.921C51.6151 107.971 51.6755 108.011 51.742 108.038C51.8084 108.064 51.8794 108.078 51.9509 108.077C52.0224 108.077 52.0931 108.062 52.1589 108.034L58.3404 105.41C58.4373 105.37 58.5205 105.304 58.5801 105.218C58.6398 105.132 58.6732 105.031 58.6765 104.927C58.6797 104.822 58.6527 104.719 58.5985 104.629C58.5443 104.539 58.4654 104.467 58.3712 104.421Z" fill="#EFF4F9"/>
<path fill-rule="evenodd" clip-rule="evenodd" d="M58.1842 106.854C58.1127 106.82 58.0345 106.802 57.9553 106.801C57.8761 106.8 57.7978 106.816 57.7257 106.849L52.6856 109.027C52.6196 109.055 52.5598 109.096 52.5097 109.147C52.4597 109.198 52.4204 109.259 52.394 109.325C52.3676 109.392 52.3547 109.463 52.356 109.535C52.3573 109.606 52.3729 109.677 52.4017 109.743C52.4306 109.809 52.4722 109.868 52.5242 109.918C52.5761 109.968 52.6374 110.007 52.7044 110.033C52.7715 110.059 52.843 110.071 52.9148 110.069C52.9866 110.068 53.0573 110.052 53.1228 110.023L58.1592 107.842C58.2554 107.802 58.3378 107.735 58.3966 107.649C58.4553 107.563 58.488 107.462 58.4906 107.358C58.4933 107.253 58.4658 107.151 58.4114 107.061C58.3571 106.972 58.2782 106.9 58.1842 106.854Z" fill="#EFF4F9"/>
<path fill-rule="evenodd" clip-rule="evenodd" d="M57.9665 109.163C57.8786 109.119 57.7808 109.1 57.6832 109.107C57.5856 109.115 57.4919 109.148 57.412 109.204L55.0356 110.819C54.9767 110.859 54.9262 110.911 54.8872 110.97C54.8482 111.03 54.8214 111.097 54.8084 111.167C54.7819 111.308 54.813 111.455 54.8947 111.574C54.9764 111.693 55.1021 111.775 55.2441 111.802C55.3861 111.829 55.5326 111.798 55.6517 111.717L58.028 110.103C58.1079 110.05 58.1723 109.978 58.2149 109.892C58.2574 109.807 58.2766 109.711 58.2704 109.616C58.2641 109.521 58.2327 109.429 58.1793 109.349C58.126 109.269 58.0525 109.205 57.9665 109.163Z" fill="#EFF4F9"/>
<path fill-rule="evenodd" clip-rule="evenodd" d="M132.741 167.743C130.03 167.535 127.221 168.124 124.812 169.348C121.959 170.797 119.318 173.037 117.691 175.875C116.058 178.724 115.272 182.186 115.649 185.472C116.1 189.4 117.743 193.529 120.754 196.305C123.992 199.29 128.654 201.235 133.141 200.927C137.696 200.615 142.061 197.983 144.924 194.582C147.352 191.699 148.424 187.777 148.447 184.138C148.462 180.022 147.521 175.302 144.469 172.141C141.432 168.994 136.763 168.056 132.741 167.748V167.743ZM132.571 169.906C136.365 170.197 140.503 171.161 142.895 173.64C145.331 176.164 146.282 180.36 146.269 184.126C146.248 187.341 145.253 190.819 143.257 193.189C140.748 196.169 136.779 198.504 132.988 198.764C129.252 199.02 125.042 197.306 122.234 194.717C119.735 192.414 118.212 188.724 117.81 185.226C117.492 182.459 118.179 179.39 119.58 176.946C120.944 174.566 123.275 172.56 125.799 171.278C127.844 170.239 130.296 169.732 132.571 169.906Z" fill="#EFF4F9"/>
<path fill-rule="evenodd" clip-rule="evenodd" d="M134.077 154.057C125.961 153.501 117.388 157.056 111.48 162.498C106.037 167.513 102.996 175.086 102.168 182.289C101.484 188.243 102.918 194.59 105.89 199.772C108.838 204.911 113.672 209.018 118.899 211.671C123.274 213.892 128.408 214.964 133.32 214.588C140.79 214.016 149.342 212.239 154.777 206.613C160.25 200.946 162.027 192.293 162 184.701C161.959 178.041 159.978 170.859 155.598 165.66C150.363 159.447 142.314 154.626 134.077 154.062V154.057ZM133.928 156.216C141.403 156.729 149.046 161.256 153.926 167.049C157.874 171.735 159.784 178.474 159.822 184.71C159.848 191.95 158.065 200.08 153.207 205.11C148.418 210.069 140.393 211.874 133.15 212.429C128.674 212.772 123.901 211.777 119.89 209.741C114.993 207.255 110.468 203.377 107.783 198.696C105.044 193.92 103.709 187.971 104.334 182.534C105.112 175.763 108.03 168.633 112.96 164.09C118.437 159.044 126.564 155.712 133.928 156.216Z" fill="#EFF4F9"/>
<path fill-rule="evenodd" clip-rule="evenodd" d="M119.439 157.981L117.559 159.078L124.638 171.134L126.518 170.038L119.439 157.981Z" fill="#EFF4F9"/>
<path fill-rule="evenodd" clip-rule="evenodd" d="M145.907 158.608L138.42 169.851L140.232 171.049L147.719 159.806L145.907 158.608Z" fill="#EFF4F9"/>
<path fill-rule="evenodd" clip-rule="evenodd" d="M155.917 168.437L145.027 174.94L146.15 176.798L157.04 170.296L155.917 168.437Z" fill="#EFF4F9"/>
<path fill-rule="evenodd" clip-rule="evenodd" d="M146.554 189.701L145.439 191.564L158.235 199.149L159.35 197.287L146.554 189.701Z" fill="#EFF4F9"/>
<path fill-rule="evenodd" clip-rule="evenodd" d="M141.577 196.635L139.526 197.367L144.427 210.913L146.477 210.181L141.577 196.635Z" fill="#EFF4F9"/>
<path fill-rule="evenodd" clip-rule="evenodd" d="M123.412 197.405L116.606 209.055L118.486 210.143L125.293 198.493L123.412 197.405Z" fill="#EFF4F9"/>
<path fill-rule="evenodd" clip-rule="evenodd" d="M118.376 190.365L106.261 197.139L107.324 199.031L119.439 192.258L118.376 190.365Z" fill="#EFF4F9"/>
<path fill-rule="evenodd" clip-rule="evenodd" d="M107.367 169.043L106.329 170.948L117.627 177.044L118.665 175.139L107.367 169.043Z" fill="#EFF4F9"/>
<path fill-rule="evenodd" clip-rule="evenodd" d="M109.064 172.882C108.94 172.878 108.819 172.915 108.719 172.989L104.159 176.24C104.042 176.324 103.963 176.451 103.94 176.593C103.916 176.735 103.951 176.881 104.036 176.998C104.12 177.114 104.248 177.193 104.391 177.216C104.534 177.239 104.68 177.205 104.797 177.12L109.357 173.869C109.451 173.804 109.523 173.711 109.561 173.604C109.599 173.496 109.602 173.38 109.569 173.27C109.536 173.161 109.47 173.065 109.379 172.995C109.289 172.925 109.178 172.886 109.064 172.882Z" fill="#EFF4F9"/>
<path fill-rule="evenodd" clip-rule="evenodd" d="M109.8 174.575C109.658 174.573 109.52 174.626 109.417 174.723L103.359 180.277C103.307 180.325 103.264 180.383 103.234 180.448C103.203 180.513 103.186 180.583 103.183 180.654C103.18 180.726 103.192 180.797 103.216 180.864C103.241 180.931 103.279 180.993 103.327 181.045C103.376 181.098 103.435 181.14 103.5 181.17C103.565 181.2 103.635 181.217 103.707 181.22C103.779 181.223 103.85 181.212 103.918 181.187C103.985 181.163 104.047 181.125 104.1 181.077L110.157 175.523C110.24 175.45 110.298 175.354 110.325 175.248C110.352 175.141 110.345 175.029 110.307 174.926C110.268 174.823 110.199 174.735 110.108 174.672C110.018 174.609 109.91 174.576 109.8 174.575Z" fill="#EFF4F9"/>
<path fill-rule="evenodd" clip-rule="evenodd" d="M110.642 176.946C110.52 176.955 110.405 177.004 110.315 177.085L102.487 183.926C102.43 183.972 102.383 184.028 102.349 184.093C102.315 184.157 102.294 184.228 102.287 184.3C102.281 184.373 102.289 184.446 102.312 184.515C102.334 184.584 102.371 184.648 102.419 184.703C102.467 184.758 102.526 184.803 102.592 184.835C102.657 184.866 102.729 184.885 102.802 184.889C102.875 184.892 102.948 184.881 103.017 184.856C103.086 184.831 103.149 184.793 103.202 184.743L111.033 177.902C111.122 177.829 111.185 177.729 111.213 177.617C111.241 177.505 111.233 177.388 111.189 177.281C111.146 177.175 111.069 177.085 110.971 177.024C110.872 176.964 110.757 176.937 110.642 176.946Z" fill="#EFF4F9"/>
<path fill-rule="evenodd" clip-rule="evenodd" d="M111.097 179.588C110.956 179.584 110.819 179.635 110.714 179.73L103.023 186.639C102.916 186.736 102.852 186.871 102.845 187.014C102.838 187.158 102.888 187.299 102.985 187.405C103.082 187.512 103.218 187.576 103.362 187.583C103.507 187.59 103.648 187.54 103.755 187.443L111.446 180.535C111.528 180.463 111.587 180.367 111.614 180.262C111.641 180.156 111.635 180.045 111.597 179.942C111.56 179.84 111.492 179.751 111.403 179.688C111.313 179.624 111.207 179.59 111.097 179.588Z" fill="#EFF4F9"/>
<path fill-rule="evenodd" clip-rule="evenodd" d="M111.871 182.229C111.75 182.236 111.635 182.284 111.544 182.364L103.24 189.475C103.184 189.521 103.138 189.578 103.105 189.642C103.071 189.705 103.051 189.775 103.045 189.847C103.039 189.919 103.047 189.991 103.069 190.06C103.092 190.128 103.127 190.192 103.175 190.246C103.222 190.301 103.28 190.346 103.344 190.378C103.409 190.41 103.48 190.429 103.552 190.434C103.624 190.438 103.697 190.429 103.765 190.405C103.834 190.382 103.897 190.345 103.951 190.297L112.254 183.185C112.342 183.112 112.405 183.013 112.433 182.902C112.461 182.791 112.453 182.675 112.411 182.569C112.369 182.463 112.294 182.372 112.197 182.311C112.1 182.25 111.986 182.222 111.871 182.229Z" fill="#EFF4F9"/>
<path fill-rule="evenodd" clip-rule="evenodd" d="M112.824 185.277C112.702 185.283 112.585 185.331 112.493 185.412L104.121 192.591C104.011 192.685 103.944 192.819 103.934 192.963C103.923 193.107 103.971 193.248 104.066 193.357C104.16 193.466 104.295 193.533 104.439 193.543C104.583 193.554 104.726 193.507 104.835 193.412L113.207 186.233C113.295 186.16 113.358 186.06 113.386 185.95C113.414 185.839 113.406 185.722 113.364 185.616C113.321 185.51 113.246 185.42 113.15 185.359C113.053 185.298 112.939 185.27 112.824 185.277Z" fill="#EFF4F9"/>
<path fill-rule="evenodd" clip-rule="evenodd" d="M113.445 188.664C113.323 188.669 113.206 188.716 113.114 188.796L105.15 195.433C105.095 195.479 105.05 195.535 105.017 195.598C104.983 195.661 104.963 195.73 104.956 195.801C104.95 195.872 104.957 195.944 104.979 196.012C105 196.08 105.034 196.143 105.08 196.198C105.126 196.252 105.182 196.298 105.246 196.331C105.309 196.364 105.378 196.384 105.45 196.391C105.521 196.397 105.593 196.39 105.661 196.368C105.729 196.347 105.793 196.313 105.848 196.267L113.811 189.63C113.901 189.558 113.966 189.46 113.997 189.35C114.028 189.239 114.022 189.122 113.982 189.015C113.941 188.907 113.867 188.816 113.771 188.753C113.674 188.69 113.561 188.658 113.445 188.664Z" fill="#EFF4F9"/>
<path fill-rule="evenodd" clip-rule="evenodd" d="M210.773 88.9862C209.259 88.4013 207.99 88.0234 207.99 88.0234C207.741 87.9489 207.473 87.9627 207.233 88.0626C206.993 88.1625 206.795 88.3423 206.672 88.5715C206.672 88.5715 206.18 89.493 205.472 90.548C204.764 91.6031 203.772 92.7753 203.213 93.1259C201.94 93.9236 200.041 94.0009 198.064 94.1508C196.626 94.2601 193.075 93.8606 193.075 93.8606L193.087 93.8656C192.842 93.8324 192.592 93.8813 192.376 94.0043C192.161 94.1274 191.992 94.3178 191.896 94.5464C191.896 94.5464 188.95 101.88 187.434 105.503C184.645 112.162 178.853 125.447 178.853 125.447C178.793 125.585 178.761 125.734 178.76 125.885C178.758 126.036 178.787 126.186 178.844 126.325C178.901 126.465 178.986 126.591 179.093 126.698C179.2 126.804 179.327 126.888 179.467 126.944L205.387 137.35C205.66 137.46 205.966 137.459 206.238 137.347C206.511 137.235 206.729 137.02 206.845 136.75C206.845 136.75 215.621 116.318 218.896 107.163C219.856 104.478 220.541 101.356 219.818 98.3533C219.142 95.5434 217.323 93.1062 215.227 91.3145C214.04 90.2998 212.293 89.5557 210.779 88.9701L210.773 88.9862ZM209.958 91.0912C211.38 91.6409 213.042 92.4399 213.751 93.0451C215.561 94.5924 217.092 96.7082 217.618 98.8941C218.177 101.216 217.646 103.946 216.762 106.417C213.671 115.059 205.752 133.519 205.181 134.853L181.374 125.3C181.934 124.014 186.853 112.735 189.508 106.392C190.938 102.978 193.324 97.0356 193.678 96.1545C194.497 96.2541 196.529 96.5343 198.231 96.4051C200.103 96.2631 202.414 96.2961 204.412 95.0437C205.631 94.2797 206.568 92.9626 207.344 91.8071C207.823 91.0932 207.928 90.8663 208.156 90.4675C208.602 90.6077 208.977 90.7113 209.958 91.0912Z" fill="#EFF4F9"/>
<path fill-rule="evenodd" clip-rule="evenodd" d="M195.054 131.937L188.722 146.244L185.103 145.079L190.725 130.179L188.613 129.38L182.577 145.392C182.523 145.535 182.498 145.687 182.505 145.84C182.511 145.993 182.549 146.143 182.615 146.28C182.682 146.418 182.775 146.541 182.89 146.642C183.006 146.742 183.14 146.818 183.286 146.865L188.995 148.706C189.261 148.792 189.549 148.776 189.804 148.662C190.059 148.547 190.262 148.343 190.375 148.087L197.12 132.849L195.054 131.937Z" fill="#EFF4F9"/>
<path fill-rule="evenodd" clip-rule="evenodd" d="M216.844 106.66C216.844 106.66 216.407 107.041 215.836 107.43C215.265 107.819 214.495 108.138 214.388 108.144L214.38 108.141C214.347 108.152 213.895 107.943 213.289 107.502C212.985 107.281 212.65 107.027 212.203 106.835C211.753 106.652 211.101 106.535 210.494 106.791C208.519 107.621 207.655 109.481 207.068 111.192C206.481 112.905 206.06 114.613 205.326 115.68C204.642 116.675 204.174 117.511 203.7 117.745C202.978 118.101 201.961 118.172 201.624 117.956C201.193 117.681 200.808 116.588 200.814 115.632C200.819 114.936 201.191 114.18 201.739 113.267C202.288 112.354 202.997 111.322 203.252 109.986C203.428 109.061 203.788 107.718 203.076 106.397C202.265 104.884 200.725 103.647 198.864 103.558C197.119 103.474 195.995 104.718 195.205 105.423C194.456 106.092 194.146 106.897 193.856 107.486C193.565 108.075 193.337 108.398 193.118 108.514C192.454 108.865 191.344 108.902 190.838 108.608C190.768 108.58 190.232 107.85 189.939 107.133C189.646 106.417 189.476 105.769 189.476 105.769L187.291 106.331C187.291 106.331 187.488 107.11 187.848 107.99C188.208 108.87 188.609 109.915 189.694 110.551L189.698 110.553C191.138 111.395 192.845 111.21 194.172 110.509C195.127 110.004 195.558 109.14 195.882 108.483C196.206 107.825 196.467 107.322 196.709 107.106C197.541 106.364 198.328 105.792 198.755 105.812C199.537 105.85 200.648 106.637 201.09 107.463C201.277 107.809 201.215 108.623 201.036 109.559C200.895 110.301 200.385 111.136 199.807 112.1C199.228 113.064 198.566 114.192 198.557 115.612C198.548 117.017 198.847 118.856 200.404 119.853C201.856 120.785 203.516 120.349 204.7 119.766C206.133 119.059 206.665 117.714 207.186 116.957C208.283 115.362 208.674 113.466 209.204 111.92C209.725 110.4 210.29 109.386 211.336 108.919C211.457 108.968 211.685 109.12 211.961 109.323C212.529 109.734 213.294 110.476 214.533 110.394C215.618 110.326 216.41 109.767 217.104 109.295C217.799 108.821 218.329 108.357 218.329 108.357L216.845 106.657L216.844 106.66Z" fill="#EFF4F9"/>
<path fill-rule="evenodd" clip-rule="evenodd" d="M190.15 112.578C190.011 112.532 189.86 112.542 189.729 112.606L186.156 114.273C186.02 114.336 185.915 114.451 185.864 114.592C185.813 114.732 185.82 114.888 185.883 115.023C185.947 115.159 186.062 115.264 186.202 115.315C186.343 115.366 186.498 115.359 186.634 115.296L190.207 113.629C190.311 113.582 190.398 113.505 190.457 113.408C190.517 113.31 190.545 113.197 190.539 113.083C190.533 112.97 190.492 112.861 190.423 112.77C190.353 112.68 190.258 112.613 190.15 112.578Z" fill="#EFF4F9"/>
<path fill-rule="evenodd" clip-rule="evenodd" d="M190.046 114.515C189.906 114.471 189.754 114.483 189.623 114.548L184.434 117.003C184.362 117.032 184.297 117.075 184.243 117.129C184.188 117.184 184.145 117.249 184.117 117.32C184.088 117.392 184.075 117.469 184.077 117.546C184.079 117.623 184.098 117.699 184.131 117.769C184.163 117.839 184.21 117.901 184.268 117.952C184.326 118.003 184.394 118.042 184.467 118.065C184.541 118.089 184.618 118.097 184.695 118.09C184.772 118.083 184.846 118.06 184.914 118.022L190.103 115.567C190.207 115.52 190.294 115.443 190.353 115.346C190.413 115.248 190.441 115.135 190.435 115.022C190.428 114.908 190.388 114.799 190.319 114.708C190.249 114.618 190.154 114.551 190.046 114.515Z" fill="#EFF4F9"/>
<path fill-rule="evenodd" clip-rule="evenodd" d="M189.872 117.034C189.734 116.985 189.583 116.992 189.45 117.052L182.844 119.996C182.775 120.025 182.712 120.068 182.66 120.121C182.607 120.175 182.566 120.238 182.538 120.308C182.511 120.378 182.497 120.452 182.498 120.527C182.5 120.602 182.516 120.676 182.546 120.744C182.576 120.813 182.62 120.875 182.674 120.926C182.729 120.978 182.793 121.018 182.863 121.044C182.933 121.071 183.008 121.083 183.083 121.08C183.157 121.078 183.231 121.06 183.299 121.029L189.905 118.085C190.01 118.04 190.099 117.965 190.16 117.869C190.221 117.773 190.252 117.661 190.248 117.548C190.244 117.434 190.206 117.324 190.139 117.233C190.072 117.141 189.979 117.072 189.872 117.034Z" fill="#EFF4F9"/>
<path fill-rule="evenodd" clip-rule="evenodd" d="M189.466 119.153C189.328 119.104 189.177 119.111 189.044 119.171L181.059 122.696C180.991 122.726 180.929 122.769 180.878 122.822C180.826 122.876 180.786 122.939 180.759 123.008C180.732 123.077 180.719 123.151 180.72 123.225C180.722 123.3 180.738 123.373 180.768 123.441C180.798 123.509 180.841 123.57 180.895 123.621C180.949 123.673 181.012 123.713 181.081 123.74C181.151 123.766 181.225 123.779 181.299 123.777C181.373 123.775 181.446 123.759 181.514 123.729L189.499 120.204C189.604 120.159 189.693 120.084 189.754 119.988C189.815 119.892 189.846 119.78 189.842 119.667C189.838 119.553 189.8 119.443 189.733 119.352C189.666 119.26 189.573 119.191 189.466 119.153Z" fill="#EFF4F9"/>
<path fill-rule="evenodd" clip-rule="evenodd" d="M189.158 121.616C189.02 121.565 188.868 121.569 188.734 121.629L180.368 125.151C180.299 125.179 180.235 125.22 180.181 125.273C180.128 125.325 180.085 125.388 180.056 125.457C180.027 125.526 180.012 125.601 180.012 125.676C180.012 125.751 180.027 125.825 180.056 125.895C180.085 125.964 180.128 126.027 180.182 126.079C180.236 126.132 180.299 126.173 180.369 126.2C180.439 126.228 180.514 126.241 180.589 126.24C180.664 126.238 180.738 126.221 180.807 126.191L189.172 122.668C189.277 122.626 189.368 122.553 189.431 122.458C189.494 122.363 189.527 122.251 189.525 122.137C189.524 122.023 189.488 121.913 189.422 121.82C189.357 121.726 189.264 121.656 189.158 121.616Z" fill="#EFF4F9"/>
<path fill-rule="evenodd" clip-rule="evenodd" d="M189.156 123.595C189.016 123.553 188.865 123.567 188.735 123.634L183.034 126.413C182.961 126.441 182.894 126.484 182.838 126.539C182.782 126.594 182.739 126.66 182.71 126.733C182.681 126.806 182.668 126.884 182.671 126.962C182.674 127.041 182.693 127.118 182.727 127.188C182.762 127.258 182.81 127.321 182.87 127.372C182.93 127.422 183 127.46 183.075 127.482C183.15 127.504 183.23 127.51 183.307 127.5C183.385 127.49 183.46 127.464 183.527 127.423L189.228 124.644C189.331 124.595 189.416 124.516 189.474 124.419C189.531 124.321 189.557 124.208 189.549 124.095C189.542 123.981 189.5 123.873 189.429 123.784C189.359 123.695 189.264 123.629 189.156 123.595Z" fill="#EFF4F9"/>
<path fill-rule="evenodd" clip-rule="evenodd" d="M189.777 125.6C189.636 125.559 189.484 125.574 189.355 125.643L185.702 127.505C185.568 127.573 185.467 127.692 185.421 127.834C185.374 127.977 185.386 128.132 185.454 128.266C185.522 128.4 185.641 128.501 185.783 128.547C185.926 128.594 186.081 128.582 186.215 128.514L189.867 126.651C189.97 126.601 190.056 126.521 190.112 126.422C190.169 126.322 190.194 126.208 190.184 126.094C190.174 125.98 190.13 125.872 190.057 125.784C189.984 125.696 189.887 125.631 189.777 125.6Z" fill="#EFF4F9"/>
<path fill-rule="evenodd" clip-rule="evenodd" d="M166.96 14.3954C163.683 12.4081 159.529 12.7839 156.16 13.6012C152.726 14.4339 149.243 16.2574 146.994 19.1526C144.136 22.8313 141.911 27.9619 142.961 32.7912L142.956 32.7896C144.191 38.4714 148.78 43.821 154.305 45.729C159.432 47.4995 165.685 46.0592 169.901 42.8115C173.816 39.7964 176.443 34.5556 176.186 29.5714C175.877 23.5638 172.082 17.5007 166.96 14.3954ZM165.789 16.3241C170.195 18.9955 173.667 24.5775 173.93 29.6862C174.14 33.7636 171.797 38.5029 168.522 41.0255C164.929 43.7928 159.24 45.0434 155.041 43.5941C150.417 41.9964 146.206 37.1161 145.163 32.3152C144.333 28.4964 146.203 23.8481 148.773 20.5401C150.601 18.187 153.659 16.535 156.689 15.8003C159.777 15.0514 163.381 14.8693 165.787 16.3282L165.789 16.3241Z" fill="#EFF4F9"/>
<path fill-rule="evenodd" clip-rule="evenodd" d="M150.722 28.0005C150.555 27.9413 150.377 27.9223 150.201 27.9447C150.025 27.9672 149.858 28.0305 149.711 28.1298C149.565 28.229 149.444 28.3614 149.358 28.5161C149.272 28.6708 149.223 28.8435 149.217 29.0203C149.092 31.2706 150.018 33.4776 151.306 35.2397C152.556 36.9512 154.354 38.8234 156.797 39.3348C160.498 40.1093 164.736 39.1155 167.409 36.6204C167.628 36.4161 167.756 36.1334 167.767 35.8343C167.777 35.5351 167.668 35.2441 167.464 35.0253C167.259 34.8065 166.976 34.6779 166.677 34.6676C166.378 34.6573 166.087 34.7663 165.868 34.9705C163.888 36.8195 160.2 37.7423 157.259 37.1269C155.741 36.8093 154.214 35.3927 153.13 33.9085C152.08 32.4723 151.386 30.6643 151.47 29.1454C151.488 28.899 151.424 28.6536 151.289 28.4468C151.154 28.24 150.955 28.0832 150.722 28.0005Z" fill="#EFF4F9"/>
<path fill-rule="evenodd" clip-rule="evenodd" d="M167.091 25.6704C167.493 25.7706 167.859 26.137 167.991 26.531C168.113 26.8974 168.037 27.3671 167.804 27.6757C167.621 27.9171 167.284 28.0461 166.982 28.0622C166.45 28.091 165.749 27.9953 165.47 27.5404C165.21 27.1177 165.346 26.4395 165.673 26.0655C165.995 25.6956 166.614 25.5511 167.091 25.6704Z" fill="#EFF4F9"/>
<path fill-rule="evenodd" clip-rule="evenodd" d="M155.89 24.1466C156.256 24.3436 156.773 24.3183 157.135 24.1155C157.473 23.9271 157.732 23.5284 157.767 23.1433C157.794 22.8417 157.632 22.5197 157.419 22.3043C157.045 21.9248 156.463 21.5243 155.95 21.673C155.473 21.8107 155.118 22.4039 155.107 22.9C155.097 23.3905 155.458 23.9144 155.89 24.1466Z" fill="#EFF4F9"/>
<path fill-rule="evenodd" clip-rule="evenodd" d="M170.918 0.302811C170.635 0.207899 170.325 0.229254 170.058 0.362278C169.79 0.495301 169.586 0.729095 169.49 1.01232L167.169 7.60003C167.119 7.73995 167.097 7.88844 167.104 8.0369C167.111 8.18536 167.148 8.33092 167.212 8.4652C167.275 8.59949 167.365 8.71968 167.476 8.81923C167.586 8.91879 167.715 8.9956 167.855 9.0452C167.995 9.09479 168.144 9.11623 168.292 9.10826C168.441 9.1003 168.586 9.06309 168.72 8.9988C168.854 8.9345 168.974 8.84447 169.073 8.73368C169.172 8.62289 169.249 8.49352 169.298 8.35319L171.619 1.76561C171.672 1.62376 171.695 1.47272 171.688 1.32162C171.681 1.17052 171.644 1.02243 171.578 0.886028C171.513 0.749626 171.421 0.627711 171.307 0.527625C171.194 0.42754 171.062 0.350718 170.918 0.302811Z" fill="#EFF4F9"/>
<path fill-rule="evenodd" clip-rule="evenodd" d="M151.388 50.9719C151.104 50.878 150.794 50.9007 150.527 51.0348C150.26 51.1688 150.057 51.4034 149.963 51.6871L147.87 57.683C147.82 57.8231 147.799 57.9716 147.807 58.12C147.815 58.2684 147.852 58.4136 147.917 58.5476C147.981 58.6816 148.071 58.8016 148.182 58.9007C148.293 58.9997 148.422 59.0761 148.562 59.1251C148.702 59.1742 148.851 59.195 148.999 59.1865C149.148 59.178 149.293 59.1401 149.427 59.0754C149.561 59.0106 149.68 58.9201 149.779 58.809C149.878 58.6978 149.953 58.5684 150.002 58.4279L152.094 52.432C152.146 52.29 152.169 52.1389 152.162 51.9878C152.154 51.8367 152.116 51.6886 152.05 51.5525C151.984 51.4163 151.892 51.2948 151.778 51.1951C151.664 51.0955 151.531 51.0192 151.388 50.9719Z" fill="#EFF4F9"/>
<path fill-rule="evenodd" clip-rule="evenodd" d="M188.531 39.4939C188.507 39.4835 188.482 39.474 188.457 39.4653L181.868 37.1439C181.727 37.0851 181.575 37.0558 181.421 37.0579C181.268 37.06 181.116 37.0935 180.976 37.1561C180.836 37.2186 180.71 37.309 180.606 37.4218C180.502 37.5347 180.423 37.6675 180.372 37.8122C180.321 37.957 180.3 38.1107 180.311 38.2638C180.321 38.4169 180.363 38.5661 180.433 38.7025C180.503 38.8389 180.6 38.9595 180.719 39.0571C180.837 39.1547 180.974 39.2271 181.122 39.2699L187.71 41.5914C187.988 41.6957 188.296 41.6865 188.567 41.5658C188.838 41.4451 189.05 41.2226 189.158 40.9464C189.266 40.6701 189.261 40.3625 189.144 40.09C189.027 39.8174 188.808 39.6017 188.533 39.4898L188.531 39.4939Z" fill="#EFF4F9"/>
<path fill-rule="evenodd" clip-rule="evenodd" d="M137.85 19.9639C137.826 19.9535 137.801 19.9439 137.776 19.9352L131.78 17.8428C131.638 17.7847 131.485 17.7564 131.332 17.7591C131.179 17.7619 131.027 17.7959 130.888 17.859C130.748 17.9221 130.622 18.0129 130.519 18.1261C130.416 18.2393 130.336 18.3725 130.286 18.5174C130.236 18.6623 130.216 18.8159 130.227 18.9688C130.238 19.1218 130.28 19.2711 130.351 19.4072C130.421 19.5434 130.519 19.6636 130.638 19.7608C130.756 19.8579 130.894 19.9298 131.041 19.9721L137.038 22.0645C137.316 22.1676 137.623 22.157 137.894 22.0352C138.164 21.9134 138.376 21.6901 138.483 21.4136C138.59 21.137 138.583 20.8295 138.465 20.5574C138.347 20.2854 138.127 20.0707 137.852 19.9598L137.85 19.9639Z" fill="#EFF4F9"/>
<path fill-rule="evenodd" clip-rule="evenodd" d="M187.89 16.2871C187.74 16.2219 187.577 16.1901 187.413 16.1944C187.248 16.1987 187.087 16.2388 186.94 16.3118L180.639 19.3325C180.498 19.3922 180.371 19.4795 180.266 19.5896C180.16 19.6997 180.078 19.8303 180.024 19.9731C179.97 20.1159 179.946 20.268 179.952 20.4205C179.959 20.5729 179.997 20.7226 180.063 20.8601C180.129 20.9977 180.222 21.1204 180.337 21.2209C180.452 21.3213 180.586 21.3974 180.731 21.4445C180.876 21.4917 181.03 21.5087 181.182 21.495C181.334 21.4813 181.481 21.437 181.615 21.3645L187.916 18.3479C188.114 18.2567 188.281 18.1101 188.397 17.9258C188.514 17.7415 188.574 17.5274 188.572 17.3094C188.569 17.0914 188.503 16.8789 188.382 16.6974C188.261 16.516 188.09 16.3735 187.89 16.2871Z" fill="#EFF4F9"/>
<path fill-rule="evenodd" clip-rule="evenodd" d="M138.246 38.3072C138.095 38.2423 137.931 38.2114 137.767 38.2164C137.602 38.2213 137.441 38.2621 137.294 38.336L131.576 41.0955C131.442 41.1599 131.323 41.25 131.224 41.3606C131.125 41.4711 131.049 41.6002 131 41.7402C130.951 41.8801 130.931 42.0283 130.939 42.1763C130.947 42.3243 130.985 42.4692 131.049 42.6027C131.114 42.7362 131.204 42.8558 131.314 42.9546C131.425 43.0533 131.554 43.1293 131.694 43.1782C131.834 43.2271 131.982 43.2478 132.13 43.2394C132.278 43.231 132.423 43.1935 132.557 43.1291L138.275 40.3696C138.473 40.2781 138.641 40.1311 138.757 39.9464C138.874 39.7617 138.934 39.5471 138.931 39.3289C138.928 39.1106 138.861 38.8978 138.74 38.7165C138.618 38.5352 138.447 38.393 138.246 38.3072Z" fill="#EFF4F9"/>
<path fill-rule="evenodd" clip-rule="evenodd" d="M147.72 0.964602C147.508 0.88981 147.278 0.879919 147.061 0.936293C146.843 0.992668 146.647 1.11264 146.499 1.28094C146.35 1.44923 146.254 1.65829 146.225 1.88105C146.196 2.10381 146.233 2.33031 146.333 2.53148L149.351 8.83118C149.415 8.96489 149.505 9.08452 149.615 9.18355C149.725 9.28258 149.854 9.3591 149.994 9.40838C150.134 9.45765 150.282 9.47873 150.43 9.47075C150.578 9.46277 150.723 9.42575 150.857 9.36173C150.99 9.2977 151.11 9.2079 151.209 9.09758C151.308 8.98726 151.385 8.85874 151.434 8.71892C151.483 8.5791 151.504 8.43092 151.496 8.2829C151.488 8.13487 151.451 7.98979 151.387 7.8561L148.37 1.5564C148.306 1.41929 148.216 1.29616 148.105 1.19452C147.993 1.09287 147.862 1.01472 147.72 0.964602Z" fill="#EFF4F9"/>
<path fill-rule="evenodd" clip-rule="evenodd" d="M169.743 50.6003C169.531 50.5264 169.302 50.5175 169.085 50.5744C168.868 50.6313 168.673 50.7516 168.525 50.92C168.376 51.0883 168.281 51.297 168.252 51.5194C168.223 51.7419 168.261 51.9679 168.361 52.1688L171.124 57.8926C171.184 58.0328 171.272 58.1592 171.382 58.2644C171.493 58.3697 171.623 58.4517 171.766 58.5051C171.909 58.5584 172.061 58.5822 172.214 58.5751C172.366 58.568 172.516 58.5299 172.653 58.4635C172.79 58.397 172.913 58.3036 173.013 58.1885C173.113 58.0734 173.189 57.9393 173.235 57.7941C173.282 57.6489 173.299 57.4958 173.285 57.3439C173.271 57.192 173.226 57.0444 173.154 56.9103L170.393 51.1921C170.33 51.055 170.24 50.9319 170.128 50.8302C170.016 50.7286 169.885 50.6504 169.743 50.6003Z" fill="#EFF4F9"/>
<path fill-rule="evenodd" clip-rule="evenodd" d="M154.015 18.2061C153.913 18.1715 153.803 18.1667 153.698 18.1925L147.312 19.6352C147.24 19.6515 147.172 19.6819 147.111 19.7247C147.05 19.7675 146.998 19.822 146.959 19.8848C146.919 19.9475 146.892 20.0175 146.88 20.0907C146.867 20.1639 146.869 20.2388 146.885 20.3112C146.902 20.3836 146.932 20.4521 146.975 20.5128C147.018 20.5735 147.072 20.6251 147.135 20.6648C147.198 20.7044 147.268 20.7313 147.341 20.7439C147.414 20.7565 147.489 20.7546 147.562 20.7382L153.945 19.2898C154.065 19.264 154.174 19.1996 154.254 19.1066C154.334 19.0135 154.382 18.8969 154.39 18.7743C154.398 18.6516 154.365 18.5298 154.298 18.4272C154.23 18.3247 154.13 18.247 154.015 18.2061Z" fill="#EFF4F9"/>
<path fill-rule="evenodd" clip-rule="evenodd" d="M151.944 21.139C151.826 21.0918 151.694 21.0862 151.572 21.1232L145.247 22.9107C145.102 22.9514 144.98 23.0479 144.907 23.1787C144.834 23.3094 144.816 23.4638 144.856 23.608C144.897 23.7523 144.993 23.8745 145.124 23.9477C145.255 24.0209 145.41 24.0391 145.554 23.9983L151.879 22.2109C151.995 22.181 152.098 22.1154 152.173 22.0234C152.249 21.9313 152.294 21.8177 152.301 21.6988C152.308 21.5798 152.277 21.4617 152.213 21.3612C152.149 21.2608 152.055 21.1826 151.944 21.139Z" fill="#EFF4F9"/>
<path fill-rule="evenodd" clip-rule="evenodd" d="M150.054 24.302C149.936 24.2573 149.805 24.2539 149.685 24.2922L145.051 25.6757C144.908 25.7185 144.787 25.8165 144.716 25.9484C144.644 26.0803 144.628 26.2352 144.671 26.3789C144.714 26.5226 144.812 26.6434 144.944 26.7148C145.076 26.7862 145.23 26.8024 145.374 26.7597L150.007 25.3761C150.123 25.3446 150.225 25.2774 150.299 25.184C150.374 25.0906 150.417 24.9757 150.422 24.8564C150.427 24.737 150.394 24.6192 150.328 24.5196C150.262 24.4201 150.166 24.3434 150.054 24.302Z" fill="#EFF4F9"/>
<path fill-rule="evenodd" clip-rule="evenodd" d="M148.93 26.8162C148.812 26.7715 148.681 26.7679 148.561 26.8062L143.927 28.1897C143.784 28.2325 143.663 28.3307 143.591 28.4626C143.52 28.5945 143.504 28.7494 143.547 28.8931C143.59 29.0369 143.688 29.1579 143.82 29.2293C143.951 29.3008 144.106 29.3167 144.25 29.2739L148.883 27.8904C148.999 27.8589 149.101 27.7918 149.176 27.6984C149.25 27.6049 149.293 27.4902 149.298 27.3707C149.304 27.2513 149.271 27.1333 149.204 27.0337C149.138 26.9342 149.042 26.8576 148.93 26.8162Z" fill="#EFF4F9"/>
<path fill-rule="evenodd" clip-rule="evenodd" d="M148.201 29.4831C148.083 29.4384 147.952 29.4351 147.832 29.4734L143.198 30.8569C143.055 30.8997 142.934 30.9977 142.863 31.1295C142.791 31.2614 142.775 31.4163 142.818 31.5601C142.861 31.7038 142.959 31.8246 143.091 31.896C143.223 31.9674 143.377 31.9836 143.521 31.9408L148.154 30.5573C148.27 30.5257 148.372 30.4586 148.446 30.3651C148.521 30.2717 148.564 30.1569 148.569 30.0375C148.574 29.9181 148.541 29.8003 148.475 29.7008C148.409 29.6013 148.313 29.5246 148.201 29.4831Z" fill="#EFF4F9"/>
<path fill-rule="evenodd" clip-rule="evenodd" d="M148.196 31.6222C148.077 31.5775 147.947 31.5739 147.827 31.6121L143.643 32.8482C143.567 32.8643 143.495 32.8961 143.431 32.9415C143.368 32.9868 143.315 33.0447 143.275 33.1116C143.235 33.1786 143.209 33.2532 143.2 33.3304C143.19 33.4077 143.197 33.4861 143.219 33.5608C143.241 33.6355 143.278 33.7047 143.329 33.7642C143.379 33.8238 143.441 33.8721 143.511 33.9065C143.581 33.9409 143.657 33.9604 143.735 33.9639C143.813 33.9674 143.89 33.9547 143.963 33.9266L148.147 32.6909C148.26 32.6583 148.361 32.591 148.434 32.4983C148.507 32.4057 148.549 32.2924 148.555 32.1744C148.56 32.0565 148.528 31.9398 148.464 31.8408C148.4 31.7418 148.306 31.665 148.196 31.6222Z" fill="#EFF4F9"/>
<path fill-rule="evenodd" clip-rule="evenodd" d="M148.843 33.5546C148.723 33.5084 148.591 33.5045 148.469 33.5433L144.285 34.7793C144.214 34.8 144.147 34.8346 144.089 34.881C144.032 34.9275 143.983 34.9849 143.948 35.05C143.912 35.1152 143.89 35.1866 143.882 35.2605C143.874 35.3343 143.88 35.4092 143.901 35.4804C143.922 35.5517 143.957 35.618 144.004 35.6758C144.05 35.7335 144.108 35.7816 144.173 35.817C144.239 35.8524 144.31 35.8746 144.384 35.8823C144.458 35.89 144.533 35.8831 144.604 35.8619L148.788 34.6259C148.902 34.5945 149.004 34.5278 149.078 34.4353C149.153 34.3427 149.196 34.2292 149.202 34.1107C149.208 33.9921 149.177 33.8745 149.112 33.7749C149.048 33.6752 148.954 33.5975 148.843 33.5546Z" fill="#EFF4F9"/>
<path fill-rule="evenodd" clip-rule="evenodd" d="M149.676 35.3234C149.571 35.2945 149.461 35.2962 149.357 35.3284L145.169 36.5628C145.025 36.6056 144.905 36.7038 144.833 36.8357C144.762 36.9676 144.746 37.1224 144.788 37.2662C144.831 37.4099 144.929 37.531 145.061 37.6024C145.193 37.6738 145.348 37.6897 145.492 37.647L149.676 36.411C149.794 36.3779 149.899 36.3068 149.973 36.2087C150.048 36.1105 150.088 35.9908 150.088 35.8676C150.088 35.7444 150.048 35.6244 149.973 35.5263C149.899 35.4282 149.794 35.3565 149.676 35.3234Z" fill="#EFF4F9"/>
<path fill-rule="evenodd" clip-rule="evenodd" d="M151.05 37.2443C150.931 37.1981 150.799 37.1939 150.677 37.2327L146.493 38.4687C146.417 38.4848 146.345 38.5167 146.281 38.562C146.218 38.6073 146.165 38.6652 146.125 38.7322C146.085 38.7991 146.059 38.8737 146.05 38.951C146.04 39.0283 146.047 39.1067 146.069 39.1813C146.091 39.256 146.128 39.3253 146.179 39.3848C146.229 39.4443 146.291 39.4927 146.361 39.5271C146.431 39.5614 146.507 39.581 146.585 39.5844C146.663 39.5879 146.74 39.5752 146.813 39.5472L151.001 38.3128C151.114 38.2802 151.215 38.2127 151.288 38.1201C151.361 38.0275 151.403 37.9143 151.409 37.7965C151.414 37.6786 151.382 37.562 151.318 37.4631C151.254 37.3641 151.16 37.2872 151.05 37.2443Z" fill="#EFF4F9"/>
<path fill-rule="evenodd" clip-rule="evenodd" d="M137.967 275.935C137.797 275.863 137.612 275.834 137.428 275.85C137.244 275.866 137.067 275.928 136.912 276.029C136.912 276.029 127.559 282.066 123.515 286.381C119.333 290.844 115.654 295.993 113.228 301.677C111.378 306.012 109.954 312.624 108.953 318.221C107.953 323.817 107.398 328.376 107.398 328.376C107.367 328.627 107.422 328.881 107.554 329.097C107.685 329.313 107.885 329.478 108.121 329.567L117.047 332.93C117.257 333.009 117.485 333.024 117.704 332.972C117.922 332.921 118.119 332.806 118.272 332.642L124.69 325.697C124.711 325.675 124.73 325.652 124.75 325.628C124.75 325.628 131.221 317.466 133.594 312.463C136.062 307.263 137.74 301.641 138.59 295.956C139.566 289.429 138.655 276.893 138.655 276.893C138.64 276.686 138.568 276.486 138.446 276.317C138.325 276.148 138.159 276.016 137.967 275.935ZM136.49 279.064C136.65 281.822 137.114 290.579 136.36 295.623C135.542 301.092 133.922 306.506 131.554 311.495C129.471 315.886 123.005 324.189 122.986 324.213L117.129 330.549L109.769 327.778C109.855 327.09 110.272 323.669 111.175 318.618C112.164 313.088 113.622 306.506 115.306 302.56C117.601 297.182 121.118 292.233 125.16 287.92C128.141 284.739 134.28 280.552 136.49 279.064Z" fill="#EFF4F9"/>
<path fill-rule="evenodd" clip-rule="evenodd" d="M135.912 277.48L112.101 330.179L114.153 331.119L137.965 278.419L135.912 277.48Z" fill="#EFF4F9"/>
<path fill-rule="evenodd" clip-rule="evenodd" d="M167.368 293.52C167.177 293.435 166.967 293.405 166.76 293.432C166.76 293.432 157.933 294.588 153.431 295.948C148.833 297.337 144.194 299.043 140.024 301.638C137.4 303.271 133.597 307.174 133.597 307.174C133.493 307.28 133.41 307.404 133.354 307.542C133.298 307.679 133.27 307.826 133.27 307.974C133.271 308.122 133.301 308.268 133.358 308.405C133.416 308.542 133.499 308.666 133.604 308.77C133.71 308.874 133.835 308.957 133.972 309.013C134.109 309.069 134.256 309.098 134.404 309.097C134.552 309.096 134.699 309.067 134.836 309.009C134.972 308.952 135.096 308.868 135.201 308.763C135.201 308.763 139.187 304.817 141.216 303.555C145.123 301.123 149.576 299.47 154.085 298.108C157.431 297.097 162.63 296.403 164.833 296.086C163.731 298.376 159.046 308.199 155.587 313.733C154.184 315.98 152.799 318.191 151.044 319.927C146.973 323.953 142.048 327.185 136.966 330.032C133.801 331.805 127.322 334.136 126.441 334.455L121.442 328.456C121.35 328.333 121.234 328.23 121.101 328.154C120.968 328.077 120.821 328.028 120.669 328.01C120.516 327.992 120.362 328.005 120.215 328.049C120.068 328.093 119.931 328.166 119.813 328.265C119.696 328.363 119.599 328.484 119.53 328.621C119.461 328.758 119.42 328.907 119.41 329.061C119.401 329.214 119.423 329.367 119.474 329.511C119.526 329.656 119.607 329.788 119.711 329.9L125.246 336.538C125.394 336.715 125.592 336.843 125.814 336.904C126.036 336.965 126.271 336.957 126.489 336.88C126.489 336.88 134.252 334.142 138.071 332.003C143.247 329.103 148.345 325.768 152.633 321.528C154.642 319.541 156.1 317.172 157.501 314.93C161.536 308.473 167.93 295.04 167.93 295.04C167.996 294.904 168.033 294.756 168.04 294.605C168.047 294.454 168.023 294.303 167.971 294.161C167.918 294.02 167.838 293.89 167.734 293.78C167.631 293.67 167.506 293.581 167.368 293.52Z" fill="#EFF4F9"/>
<path fill-rule="evenodd" clip-rule="evenodd" d="M150.527 307.785C150.509 307.776 150.49 307.768 150.471 307.76L138.85 303.079L138.009 305.171L149.089 309.634L151.588 320.126L153.785 319.604L151.149 308.545C151.11 308.379 151.034 308.224 150.926 308.092C150.819 307.96 150.683 307.854 150.529 307.781L150.527 307.785Z" fill="#EFF4F9"/>
<path fill-rule="evenodd" clip-rule="evenodd" d="M145.994 298.935L145.016 300.965L154.681 305.603L156.139 313.309L158.358 312.89L156.793 304.624C156.76 304.45 156.686 304.287 156.579 304.147C156.471 304.006 156.332 303.893 156.173 303.817L145.994 298.935Z" fill="#EFF4F9"/>
<path fill-rule="evenodd" clip-rule="evenodd" d="M128.184 289.072C128.108 289.043 128.025 289.031 127.943 289.037C127.861 289.043 127.782 289.067 127.71 289.107L117.507 294.605C117.438 294.638 117.377 294.685 117.327 294.742C117.277 294.799 117.239 294.866 117.216 294.938C117.192 295.01 117.184 295.087 117.19 295.162C117.197 295.238 117.219 295.312 117.255 295.379C117.291 295.446 117.34 295.505 117.399 295.552C117.458 295.6 117.526 295.635 117.599 295.656C117.673 295.676 117.749 295.682 117.824 295.672C117.9 295.663 117.972 295.638 118.038 295.599L128.246 290.104C128.343 290.054 128.424 289.977 128.478 289.881C128.533 289.786 128.558 289.677 128.551 289.568C128.545 289.459 128.507 289.354 128.442 289.266C128.376 289.178 128.287 289.11 128.184 289.072Z" fill="#EFF4F9"/>
<path fill-rule="evenodd" clip-rule="evenodd" d="M126.092 293.818C126.016 293.786 125.934 293.771 125.852 293.774C125.77 293.776 125.69 293.797 125.617 293.834L115.827 298.642C115.76 298.675 115.701 298.72 115.652 298.776C115.603 298.832 115.565 298.897 115.541 298.967C115.517 299.037 115.507 299.111 115.512 299.185C115.517 299.259 115.536 299.332 115.569 299.398C115.602 299.465 115.647 299.524 115.703 299.573C115.759 299.622 115.824 299.66 115.894 299.684C115.964 299.708 116.038 299.718 116.112 299.713C116.186 299.708 116.259 299.689 116.325 299.656L126.115 294.848C126.213 294.801 126.296 294.727 126.353 294.634C126.41 294.541 126.439 294.434 126.436 294.326C126.434 294.217 126.4 294.111 126.339 294.021C126.277 293.931 126.192 293.861 126.092 293.818Z" fill="#EFF4F9"/>
<path fill-rule="evenodd" clip-rule="evenodd" d="M123.275 299.116C123.199 299.087 123.117 299.075 123.036 299.08C122.954 299.085 122.875 299.109 122.803 299.148L112.678 304.458C112.545 304.527 112.446 304.646 112.401 304.789C112.356 304.932 112.37 305.087 112.44 305.22C112.509 305.353 112.628 305.452 112.771 305.497C112.914 305.542 113.069 305.528 113.202 305.458L123.329 300.144C123.425 300.094 123.506 300.018 123.56 299.924C123.614 299.829 123.64 299.722 123.634 299.613C123.629 299.504 123.592 299.4 123.528 299.312C123.464 299.224 123.377 299.156 123.275 299.116Z" fill="#EFF4F9"/>
<path fill-rule="evenodd" clip-rule="evenodd" d="M121.477 303.884C121.401 303.854 121.318 303.841 121.236 303.846C121.154 303.851 121.073 303.874 121.001 303.913L112.452 308.397C112.386 308.431 112.327 308.478 112.28 308.535C112.232 308.592 112.197 308.658 112.174 308.728C112.152 308.799 112.144 308.873 112.151 308.947C112.157 309.021 112.179 309.093 112.213 309.159C112.247 309.225 112.294 309.283 112.351 309.331C112.408 309.378 112.474 309.414 112.545 309.436C112.616 309.458 112.69 309.466 112.764 309.46C112.838 309.453 112.91 309.432 112.975 309.397L121.526 304.91C121.623 304.861 121.703 304.784 121.757 304.691C121.811 304.597 121.837 304.49 121.832 304.382C121.827 304.273 121.791 304.169 121.728 304.081C121.665 303.993 121.578 303.924 121.477 303.884Z" fill="#EFF4F9"/>
<path fill-rule="evenodd" clip-rule="evenodd" d="M118.795 309.454C118.72 309.422 118.638 309.406 118.556 309.409C118.474 309.412 118.394 309.432 118.32 309.469L110.667 313.155C110.532 313.22 110.429 313.336 110.38 313.478C110.331 313.619 110.34 313.775 110.405 313.909C110.471 314.044 110.587 314.147 110.729 314.196C110.87 314.245 111.025 314.236 111.16 314.171L118.809 310.483C118.908 310.437 118.991 310.364 119.049 310.272C119.107 310.18 119.137 310.073 119.135 309.964C119.134 309.855 119.101 309.749 119.041 309.659C118.98 309.568 118.895 309.497 118.795 309.454Z" fill="#EFF4F9"/>
<path fill-rule="evenodd" clip-rule="evenodd" d="M116.539 315.001C116.403 314.943 116.25 314.94 116.112 314.994L110.36 317.124C110.289 317.149 110.224 317.187 110.168 317.237C110.112 317.288 110.067 317.348 110.035 317.416C110.003 317.484 109.985 317.558 109.982 317.633C109.979 317.708 109.991 317.782 110.017 317.853C110.043 317.923 110.083 317.987 110.134 318.042C110.185 318.097 110.247 318.141 110.315 318.172C110.384 318.202 110.457 318.219 110.532 318.221C110.607 318.223 110.682 318.209 110.752 318.182L116.504 316.052C116.612 316.014 116.705 315.945 116.772 315.853C116.84 315.761 116.878 315.651 116.881 315.538C116.885 315.424 116.854 315.312 116.793 315.216C116.732 315.12 116.643 315.046 116.539 315.001Z" fill="#EFF4F9"/>
</g>
</svg>
