<svg width="176" height="68" viewBox="0 0 176 68" fill="none" xmlns="http://www.w3.org/2000/svg">
<path d="M1 12.1112C1 12.1112 30.2125 -12.889 53 12.1112C75.7875 37.1114 93.9315 -12.8888 115 12.1112C136.069 37.1112 175 12.1112 175 12.1112M1 33.2228C1 33.2228 30.2125 8.22256 53 33.2228C75.7875 58.223 93.9315 8.22278 115 33.2228C136.069 58.2228 175 33.2228 175 33.2228M1 55.2228C1 55.2228 30.2125 30.2226 53 55.2228C75.7875 80.223 93.9315 30.2228 115 55.2228C136.069 80.2228 175 55.2228 175 55.2228" stroke="#1188EE" stroke-width="2"/>
</svg>
